<svg width="22" height="19" viewBox="0 0 22 19" fill="none" xmlns="http://www.w3.org/2000/svg">
<path d="M1.46433 6.84375C1.21579 6.84375 0.988987 6.64229 1.00041 6.37895C1.06733 4.83687 1.25481 3.83298 1.78008 3.03884C2.08228 2.58196 2.45765 2.18459 2.88923 1.86468C4.05575 1 5.70139 1 8.99266 1H13.0074C16.2986 1 17.9443 1 19.1108 1.86468C19.5424 2.18459 19.9177 2.58196 20.2199 3.03884C20.7452 3.83289 20.9327 4.83665 20.9996 6.37843C21.011 6.64208 20.7839 6.84375 20.5351 6.84375C19.1493 6.84375 18.0259 8.03299 18.0259 9.5C18.0259 10.967 19.1493 12.1562 20.5351 12.1562C20.7839 12.1562 21.011 12.3579 20.9996 12.6216C20.9327 14.1634 20.7452 15.1671 20.2199 15.9612C19.9177 16.418 19.5424 16.8154 19.1108 17.1353C17.9443 18 16.2986 18 13.0074 18H8.99266C5.70139 18 4.05575 18 2.88923 17.1353C2.45765 16.8154 2.08228 16.418 1.78008 15.9612C1.25481 15.167 1.06733 14.1631 1.00041 12.6211C0.988987 12.3577 1.21579 12.1562 1.46433 12.1562C2.85012 12.1562 3.97352 10.967 3.97352 9.5C3.97352 8.03299 2.85012 6.84375 1.46433 6.84375Z" stroke="#212B36" stroke-width="1.5" stroke-linejoin="round"/>
<path d="M8.5 12L13.5 7" stroke="#212B36" stroke-width="1.5" stroke-linecap="round" stroke-linejoin="round"/>
<path d="M8.5 7H8.51122M13.4888 12H13.5" stroke="#212B36" stroke-width="2" stroke-linecap="round" stroke-linejoin="round"/>
</svg>
