<svg width="20" height="20" viewBox="0 0 20 20" fill="none" xmlns="http://www.w3.org/2000/svg">
<path d="M18.3333 10.0003C18.3333 14.6027 14.6023 18.3337 9.99996 18.3337C5.39759 18.3337 1.66663 14.6027 1.66663 10.0003C1.66663 5.39795 5.39759 1.66699 9.99996 1.66699C14.6023 1.66699 18.3333 5.39795 18.3333 10.0003Z" stroke="#212B36" stroke-width="1.5"/>
<path d="M11.5417 8.44048C11.5417 8.85469 11.8775 9.19048 12.2917 9.19048C12.7059 9.19048 13.0417 8.85469 13.0417 8.44048H11.5417ZM8.25 11.5612C8.25 11.147 7.91421 10.8112 7.5 10.8112C7.08579 10.8112 6.75 11.147 6.75 11.5612H8.25ZM10.75 5.83398C10.75 5.41977 10.4142 5.08398 10 5.08398C9.58579 5.08398 9.25 5.41977 9.25 5.83398L10.75 5.83398ZM9.25 14.1673C9.25 14.5815 9.58579 14.9173 10 14.9173C10.4142 14.9173 10.75 14.5815 10.75 14.1673H9.25ZM10 9.1308C9.21448 9.1308 8.82431 9.00453 8.6464 8.88543C8.53272 8.80932 8.45833 8.71078 8.45833 8.44048H6.95833C6.95833 9.09822 7.19645 9.71984 7.81193 10.1319C8.36319 10.5009 9.11885 10.6308 10 10.6308V9.1308ZM8.45833 8.44048C8.45833 8.27281 8.54945 8.0577 8.82304 7.85709C9.09618 7.6568 9.50986 7.51009 10 7.51009V6.01009C9.22449 6.01009 8.49233 6.23955 7.93605 6.64744C7.38023 7.055 6.95833 7.68009 6.95833 8.44048H8.45833ZM10 7.51009C10.4901 7.51009 10.9038 7.6568 11.177 7.85709C11.4506 8.0577 11.5417 8.27281 11.5417 8.44048H13.0417C13.0417 7.68009 12.6198 7.055 12.0639 6.64744C11.5077 6.23955 10.7755 6.01009 10 6.01009V7.51009ZM11.75 11.5612C11.75 11.8769 11.6271 12.062 11.3833 12.2075C11.0941 12.3802 10.6228 12.4916 10 12.4916V13.9916C10.758 13.9916 11.5366 13.8629 12.1522 13.4955C12.8133 13.1008 13.25 12.4457 13.25 11.5612H11.75ZM10 12.4916C9.4383 12.4916 8.96344 12.3372 8.65062 12.1269C8.3331 11.9135 8.25 11.6993 8.25 11.5612H6.75C6.75 12.3511 7.22654 12.9771 7.81385 13.3719C8.40584 13.7698 9.18098 13.9916 10 13.9916V12.4916ZM10 10.6308C10.7915 10.6308 11.2363 10.7507 11.4671 10.9003C11.6297 11.0057 11.75 11.1626 11.75 11.5612H13.25C13.25 10.7595 12.9536 10.0763 12.2829 9.64153C11.6804 9.251 10.8752 9.1308 10 9.1308V10.6308ZM10.75 6.76009L10.75 5.83398L9.25 5.83398L9.25 6.76009L10.75 6.76009ZM9.25 13.2416V14.1673H10.75V13.2416H9.25Z" fill="#212B36"/>
</svg>
