<svg width="49" height="49" viewBox="0 0 49 49" fill="none" xmlns="http://www.w3.org/2000/svg">
<path d="M31.9244 23.1595C33.7499 26.4176 37.1008 30.7313 42.75 34.4045C42.75 34.4045 40.75 38.75 36.75 38.75H36.2895C36.6311 39.2215 36.7865 39.6535 36.7428 40.2092C36.6621 41.2346 36.1625 41.5761 35.1634 42.2592C32.8911 43.8128 29.4199 44.75 24.75 44.75C20.0801 44.75 16.6089 43.8128 14.3366 42.2592C13.3375 41.5761 12.8379 41.2346 12.7572 40.2092C12.7135 39.6535 12.8689 39.2215 13.2105 38.75H12.75C8.75 38.75 6.75 34.4045 6.75 34.4045C12.3992 30.7313 15.7501 26.4176 17.5756 23.1595C18.2705 21.9191 18.618 21.2989 19.0863 21.0244C19.5547 20.75 20.1807 20.75 21.4328 20.75H28.0672C29.3193 20.75 29.9453 20.75 30.4137 21.0244C30.882 21.2989 31.2295 21.9191 31.9244 23.1595Z" fill="#FFA48D"/>
<path d="M30.75 8.75L24.75 12.75L18.75 8.75C17.5785 9.76882 14.8914 11.3369 14.757 13.0413C14.6987 13.7802 15.0077 14.1843 15.6256 14.9924C16.9733 16.7548 18.75 17.7902 18.75 20.75H30.75C30.75 17.7902 32.5267 16.7548 33.8744 14.9924C34.4923 14.1843 34.8013 13.7802 34.743 13.0413C34.6086 11.3369 31.9215 9.76883 30.75 8.75Z" fill="white"/>
<path d="M30.75 8.75L24.75 12.75L18.75 8.75C17.5785 9.76882 14.8914 11.3369 14.757 13.0413C14.6987 13.7802 15.0077 14.1843 15.6256 14.9924C16.9733 16.7548 18.75 17.7902 18.75 20.75H30.75C30.75 17.7902 32.5267 16.7548 33.8744 14.9924C34.4923 14.1843 34.8013 13.7802 34.743 13.0413C34.6086 11.3369 31.9215 9.76883 30.75 8.75Z" stroke="#212B36" stroke-width="1.5" stroke-linecap="round" stroke-linejoin="round"/>
<path d="M18.75 8.75V4.75" stroke="#212B36" stroke-width="1.5" stroke-linecap="round" stroke-linejoin="round"/>
<path d="M30.75 8.75V4.75" stroke="#212B36" stroke-width="1.5" stroke-linecap="round" stroke-linejoin="round"/>
<path d="M19.75 20.75H29.75" stroke="#212B36" stroke-width="1.5" stroke-linecap="round" stroke-linejoin="round"/>
<path d="M36.75 38.75C40.75 38.75 42.75 34.4045 42.75 34.4045C36.3823 30.2641 32.9347 25.3101 31.3004 21.9711C31.0009 21.3591 30.8511 21.0532 30.6081 20.9016C30.3652 20.75 30.0463 20.75 29.4086 20.75H20.0914C19.4537 20.75 19.1348 20.75 18.8919 20.9016C18.6489 21.0532 18.4991 21.3591 18.1996 21.9711C16.5653 25.3101 13.1177 30.2641 6.75 34.4045C6.75 34.4045 8.75 38.75 12.75 38.75" stroke="#212B36" stroke-width="1.5" stroke-linecap="round" stroke-linejoin="round"/>
<path d="M28.161 28.75C28.8402 30.3429 31.7912 34.0925 35.0324 37.3717C36.2264 38.5798 36.8235 39.1838 36.7428 40.2092C36.6621 41.2346 36.1625 41.5761 35.1634 42.2592C32.8911 43.8128 29.4199 44.75 24.75 44.75C20.0801 44.75 16.6089 43.8128 14.3366 42.2592C13.3375 41.5761 12.8379 41.2346 12.7572 40.2092C12.6765 39.1838 13.2736 38.5798 14.4676 37.3717C17.7088 34.0925 20.6598 30.3429 21.339 28.75" stroke="#212B36" stroke-width="1.5" stroke-linecap="round" stroke-linejoin="round"/>
</svg>
