<svg width="283" height="173" viewBox="0 0 283 173" fill="none" xmlns="http://www.w3.org/2000/svg">
<path d="M59.0665 111.548C59.9729 134.524 109.082 176.808 162.61 154.432C187.505 144.025 184.085 130.947 201.942 111.614C212.585 100.091 228.546 90.6355 231.766 75.0351C234.549 61.5696 230.766 47.731 222.948 39.2324C205.367 20.1193 172.454 8.98929 144.378 44.3342C116.302 79.6792 56.7351 52.2927 59.0665 111.548Z" fill="url(#paint0_linear_24924_35064)"/>
<path d="M49.8551 49.5942C54.1498 57.2501 63.5551 58.3019 78.6229 56.8473C89.9549 55.751 100.289 54.9027 111.622 48.7305C119.554 44.4136 125.833 38.5731 130.416 32.9004C135.382 26.7548 142.314 19.7413 138.916 12.7733C134.246 3.20154 107.241 -4.85993 81.0181 8.32332C52.2121 22.8092 45.6541 42.1117 49.8551 49.5942Z" fill="url(#paint1_linear_24924_35064)"/>
<path d="M14.9167 72.5612C26.0496 78.0774 40.8256 70.9844 40.8256 70.9844C40.8256 70.9844 37.5419 54.9508 26.403 49.4419C15.2701 43.9254 0.5 51.0107 0.5 51.0107C0.5 51.0107 3.78377 67.0447 14.9167 72.5612Z" fill="url(#paint2_linear_24924_35064)"/>
<path d="M264.364 89.7464C258.316 93.3677 249.638 90.02 249.638 90.02C249.638 90.02 250.772 80.8027 256.825 77.1856C262.873 73.5647 271.548 76.9078 271.548 76.9078C271.548 76.9078 270.413 86.1252 264.364 89.7464Z" fill="url(#paint3_linear_24924_35064)"/>
<path d="M42.522 151.389C44.4105 151.389 45.9415 149.86 45.9415 147.973C45.9415 146.087 44.4105 144.558 42.522 144.558C40.6335 144.558 39.1025 146.087 39.1025 147.973C39.1025 149.86 40.6335 151.389 42.522 151.389Z" fill="#D0D5DD"/>
<path d="M265.219 127.596C267.947 127.596 270.158 125.387 270.158 122.662C270.158 119.937 267.947 117.729 265.219 117.729C262.491 117.729 260.28 119.937 260.28 122.662C260.28 125.387 262.491 127.596 265.219 127.596Z" fill="#D0D5DD"/>
<path d="M25.11 117.96C27.1859 117.96 28.8688 116.279 28.8688 114.205C28.8688 112.131 27.1859 110.45 25.11 110.45C23.034 110.45 21.3511 112.131 21.3511 114.205C21.3511 116.279 23.034 117.96 25.11 117.96Z" fill="#D0D5DD"/>
<path d="M46.1549 18.8953C48.4631 18.8953 50.3342 17.0262 50.3342 14.7206C50.3342 12.415 48.4631 10.5459 46.1549 10.5459C43.8467 10.5459 41.9756 12.415 41.9756 14.7206C41.9756 17.0262 43.8467 18.8953 46.1549 18.8953Z" fill="#D0D5DD"/>
<path d="M274.994 41.0857C274.994 43.1561 276.674 44.8345 278.747 44.8345C280.82 44.8345 282.5 43.1561 282.5 41.0857C282.5 39.0153 280.82 37.3369 278.747 37.3369C276.674 37.3369 274.994 39.0153 274.994 41.0857Z" fill="#D0D5DD"/>
<path d="M168.733 9.97387C171.49 9.97387 173.726 7.74114 173.726 4.98693C173.726 2.23273 171.49 0 168.733 0C165.976 0 163.741 2.23273 163.741 4.98693C163.741 7.74114 165.976 9.97387 168.733 9.97387Z" fill="#D0D5DD"/>
<path d="M38.7908 96.4748C40.9119 96.4748 42.6314 95.1008 42.6314 93.4058C42.6314 91.7109 40.9119 90.3369 38.7908 90.3369C36.6697 90.3369 34.9502 91.7109 34.9502 93.4058C34.9502 95.1008 36.6697 96.4748 38.7908 96.4748Z" fill="#D0D5DD"/>
<path d="M236.805 18.8359H236.751C236.427 23.4211 233.013 23.4915 233.013 23.4915C233.013 23.4915 236.777 23.5651 236.777 28.863C236.777 23.5651 240.541 23.4915 240.541 23.4915C240.541 23.4915 237.129 23.4211 236.805 18.8359ZM242.524 138.855H242.472C242.161 143.427 238.883 143.497 238.883 143.497C238.883 143.497 242.497 143.57 242.497 148.852C242.497 143.57 246.111 143.497 246.111 143.497C246.111 143.497 242.835 143.427 242.524 138.855Z" fill="#DFE3E8"/>
<path d="M138.545 173C186.175 173 224.786 134.431 224.786 86.854C224.786 39.2769 186.175 0.708008 138.545 0.708008C90.9152 0.708008 52.3037 39.2769 52.3037 86.854C52.3037 134.431 90.9152 173 138.545 173Z" fill="#00AB55"/>
<mask id="mask0_24924_35064" style="mask-type:alpha" maskUnits="userSpaceOnUse" x="52" y="0" width="173" height="173">
<path d="M138.545 173C186.175 173 224.786 134.431 224.786 86.854C224.786 39.2769 186.175 0.708008 138.545 0.708008C90.9152 0.708008 52.3037 39.2769 52.3037 86.854C52.3037 134.431 90.9152 173 138.545 173Z" fill="#666AF6"/>
</mask>
<g mask="url(#mask0_24924_35064)">
<path d="M184.67 48.1406H92.8021C85.0559 48.1406 78.7764 54.4132 78.7764 62.1508V160.923C78.7764 168.66 85.0559 174.933 92.8021 174.933H184.67C192.417 174.933 198.696 168.66 198.696 160.923V62.1508C198.696 54.4132 192.417 48.1406 184.67 48.1406Z" fill="white"/>
<path d="M105.667 107.76V89.665H172.333V107.76C172.333 121.229 172.333 127.963 167.994 132.148C163.655 136.332 156.671 136.332 142.704 136.332H135.296C121.329 136.332 114.345 136.332 110.006 132.148C105.667 127.963 105.667 121.229 105.667 107.76Z" fill="#FFC107"/>
<path d="M108.872 81.9727L105.667 89.665H172.333L169.128 81.9727L169.128 81.9727C166.642 76.0069 165.399 73.024 162.88 71.3445C160.361 69.665 157.129 69.665 150.667 69.665H127.333C120.87 69.665 117.639 69.665 115.12 71.3445C112.6 73.024 111.357 76.0069 108.872 81.9727Z" fill="white"/>
<path d="M105.667 89.665V88.915C105.252 88.915 104.917 89.2508 104.917 89.665H105.667ZM142.704 137.082C143.118 137.082 143.454 136.746 143.454 136.332C143.454 135.917 143.118 135.582 142.704 135.582V137.082ZM171.583 104.665C171.583 105.079 171.919 105.415 172.333 105.415C172.747 105.415 173.083 105.079 173.083 104.665H171.583ZM172.333 89.665H173.083C173.083 89.2508 172.747 88.915 172.333 88.915V89.665ZM110.006 132.148L110.526 131.608H110.526L110.006 132.148ZM154.119 112.065L154.605 112.636H154.605L154.119 112.065ZM157.759 110.282C158.1 110.047 158.186 109.58 157.951 109.239C157.715 108.898 157.248 108.812 156.907 109.048L157.759 110.282ZM154.119 120.599L153.633 121.17L154.119 120.599ZM156.907 123.616C157.248 123.851 157.715 123.765 157.951 123.424C158.186 123.083 158.1 122.616 157.759 122.381L156.907 123.616ZM142.333 135.582C141.919 135.582 141.583 135.917 141.583 136.332C141.583 136.746 141.919 137.082 142.333 137.082V135.582ZM104.917 89.665V107.76H106.417V89.665H104.917ZM135.296 137.082H142.704V135.582H135.296V137.082ZM173.083 104.665V89.665H171.583V104.665H173.083ZM104.917 107.76C104.917 114.473 104.915 119.585 105.466 123.539C106.021 127.518 107.148 130.434 109.485 132.687L110.526 131.608C108.524 129.677 107.482 127.134 106.952 123.332C106.418 119.506 106.417 114.517 106.417 107.76H104.917ZM135.296 135.582C128.292 135.582 123.112 135.58 119.137 135.065C115.181 134.552 112.532 133.542 110.526 131.608L109.485 132.687C111.818 134.937 114.831 136.019 118.944 136.552C123.038 137.083 128.333 137.082 135.296 137.082V135.582ZM105.667 90.415H172.333V88.915H105.667V90.415ZM153.633 111.493C152.501 112.456 151.586 113.23 150.966 113.937C150.328 114.664 149.917 115.411 149.917 116.332H151.417C151.417 115.919 151.58 115.511 152.093 114.926C152.624 114.322 153.436 113.629 154.605 112.636L153.633 111.493ZM157.333 109.665C156.907 109.048 156.907 109.048 156.907 109.048C156.907 109.048 156.907 109.048 156.907 109.048C156.907 109.048 156.907 109.048 156.907 109.048C156.907 109.048 156.906 109.049 156.906 109.049C156.904 109.05 156.903 109.051 156.901 109.052C156.897 109.055 156.891 109.059 156.883 109.065C156.867 109.076 156.844 109.092 156.814 109.113C156.754 109.154 156.668 109.214 156.561 109.29C156.347 109.44 156.049 109.651 155.715 109.893C155.053 110.373 154.23 110.987 153.633 111.493L154.605 112.636C155.153 112.17 155.937 111.585 156.595 111.108C156.922 110.871 157.214 110.664 157.423 110.517C157.528 110.443 157.612 110.384 157.67 110.344C157.699 110.324 157.722 110.308 157.737 110.298C157.744 110.293 157.75 110.289 157.754 110.286C157.755 110.285 157.757 110.284 157.758 110.283C157.758 110.283 157.759 110.283 157.759 110.283C157.759 110.283 157.759 110.282 157.759 110.282C157.759 110.282 157.759 110.282 157.759 110.282C157.759 110.282 157.759 110.282 157.333 109.665ZM154.605 120.027C153.436 119.034 152.624 118.341 152.093 117.737C151.58 117.152 151.417 116.745 151.417 116.332H149.917C149.917 117.252 150.328 118 150.966 118.727C151.586 119.433 152.501 120.208 153.633 121.17L154.605 120.027ZM157.333 122.998C157.759 122.381 157.759 122.381 157.759 122.381C157.759 122.381 157.759 122.381 157.759 122.381C157.759 122.381 157.759 122.381 157.759 122.381C157.759 122.381 157.758 122.38 157.758 122.38C157.757 122.38 157.755 122.379 157.754 122.377C157.75 122.375 157.744 122.371 157.737 122.366C157.722 122.355 157.699 122.34 157.67 122.32C157.612 122.279 157.528 122.22 157.423 122.147C157.214 121.999 156.922 121.793 156.595 121.556C155.937 121.079 155.153 120.493 154.605 120.027L153.633 121.17C154.23 121.677 155.053 122.291 155.715 122.771C156.049 123.012 156.347 123.223 156.561 123.374C156.668 123.449 156.754 123.509 156.814 123.551C156.844 123.572 156.867 123.588 156.883 123.599C156.891 123.604 156.897 123.608 156.901 123.611C156.903 123.613 156.904 123.614 156.906 123.615C156.906 123.615 156.907 123.615 156.907 123.615C156.907 123.616 156.907 123.616 156.907 123.616C156.907 123.616 156.907 123.616 156.907 123.616C156.907 123.616 156.907 123.616 157.333 122.998ZM150.667 117.082H162.333V115.582H150.667V117.082ZM171.583 126.332C171.583 131.44 167.442 135.582 162.333 135.582V137.082C168.27 137.082 173.083 132.269 173.083 126.332H171.583ZM162.333 117.082C167.442 117.082 171.583 121.223 171.583 126.332H173.083C173.083 120.395 168.27 115.582 162.333 115.582V117.082ZM142.333 137.082H162.333V135.582H142.333V137.082Z" fill="#212B36"/>
<path d="M105.667 89.665L108.872 81.9727C111.357 76.0069 112.6 73.024 115.12 71.3445C117.639 69.665 120.87 69.665 127.333 69.665H150.667C157.129 69.665 160.361 69.665 162.88 71.3445C165.399 73.024 166.642 76.0069 169.128 81.9727L172.333 89.665" stroke="#212B36" stroke-width="1.5" stroke-linecap="round"/>
<path d="M139 89.665V69.665" stroke="#212B36" stroke-width="1.5" stroke-linecap="round"/>
<path d="M132.333 102.998H145.666" stroke="#212B36" stroke-width="1.5" stroke-linecap="round"/>
</g>
<path d="M183.884 126.53C185.609 126.53 187.165 125.491 187.825 123.897C188.485 122.303 188.12 120.468 186.9 119.249C185.679 118.029 183.845 117.665 182.251 118.325C180.657 118.986 179.618 120.542 179.619 122.267C179.619 123.398 180.068 124.483 180.868 125.283C181.668 126.082 182.753 126.531 183.884 126.53Z" fill="#1890FF"/>
<path d="M116.466 65.5303C118.191 65.5303 119.747 64.491 120.407 62.897C121.067 61.3031 120.702 59.4685 119.482 58.2488C118.261 57.0291 116.427 56.6646 114.833 57.3252C113.239 57.9859 112.201 59.5416 112.201 61.2668C112.201 62.398 112.65 63.4829 113.45 64.2826C114.25 65.0823 115.335 65.5312 116.466 65.5303Z" fill="#FFC107"/>
<path d="M90.4205 147.78C94.7948 147.78 98.3409 144.234 98.3409 139.86C98.3409 135.486 94.7948 131.939 90.4205 131.939C86.0461 131.939 82.5 135.486 82.5 139.86C82.4979 141.961 83.3317 143.977 84.8175 145.463C86.3033 146.949 88.3192 147.782 90.4205 147.78Z" fill="#FF4842"/>
<defs>
<linearGradient id="paint0_linear_24924_35064" x1="125.419" y1="243.552" x2="173.554" y2="-141.467" gradientUnits="userSpaceOnUse">
<stop stop-color="white"/>
<stop offset="1" stop-color="#EEEEEE"/>
</linearGradient>
<linearGradient id="paint1_linear_24924_35064" x1="78.7856" y1="99.211" x2="116.982" y2="-72.6189" gradientUnits="userSpaceOnUse">
<stop stop-color="white"/>
<stop offset="1" stop-color="#EEEEEE"/>
</linearGradient>
<linearGradient id="paint2_linear_24924_35064" x1="57.668" y1="89.7682" x2="-34.078" y2="17.1163" gradientUnits="userSpaceOnUse">
<stop stop-color="white"/>
<stop offset="1" stop-color="#EEEEEE"/>
</linearGradient>
<linearGradient id="paint3_linear_24924_35064" x1="240.958" y1="101.403" x2="289.578" y2="56.1786" gradientUnits="userSpaceOnUse">
<stop stop-color="white"/>
<stop offset="1" stop-color="#EEEEEE"/>
</linearGradient>
</defs>
</svg>
