<svg width="283" height="173" viewBox="0 0 283 173" fill="none" xmlns="http://www.w3.org/2000/svg">
<path d="M59.0665 111.548C59.9729 134.524 109.082 176.808 162.61 154.432C187.505 144.025 184.085 130.947 201.942 111.614C212.585 100.091 228.546 90.6355 231.766 75.0351C234.549 61.5696 230.766 47.731 222.948 39.2324C205.367 20.1193 172.454 8.98929 144.378 44.3342C116.302 79.6792 56.7351 52.2927 59.0665 111.548Z" fill="url(#paint0_linear_24924_35026)"/>
<path d="M49.8551 49.5942C54.1498 57.2501 63.5551 58.3019 78.6229 56.8473C89.9549 55.751 100.289 54.9027 111.622 48.7305C119.554 44.4136 125.833 38.5731 130.416 32.9004C135.382 26.7548 142.314 19.7413 138.916 12.7733C134.246 3.20154 107.241 -4.85993 81.0181 8.32332C52.2121 22.8092 45.6541 42.1117 49.8551 49.5942Z" fill="url(#paint1_linear_24924_35026)"/>
<path d="M14.9167 72.5612C26.0496 78.0774 40.8256 70.9844 40.8256 70.9844C40.8256 70.9844 37.5419 54.9508 26.403 49.4419C15.2701 43.9254 0.5 51.0107 0.5 51.0107C0.5 51.0107 3.78377 67.0447 14.9167 72.5612Z" fill="url(#paint2_linear_24924_35026)"/>
<path d="M264.364 89.7464C258.316 93.3677 249.638 90.02 249.638 90.02C249.638 90.02 250.772 80.8027 256.825 77.1856C262.873 73.5647 271.548 76.9078 271.548 76.9078C271.548 76.9078 270.413 86.1252 264.364 89.7464Z" fill="url(#paint3_linear_24924_35026)"/>
<path d="M42.522 151.389C44.4105 151.389 45.9415 149.86 45.9415 147.973C45.9415 146.087 44.4105 144.558 42.522 144.558C40.6335 144.558 39.1025 146.087 39.1025 147.973C39.1025 149.86 40.6335 151.389 42.522 151.389Z" fill="#D0D5DD"/>
<path d="M265.219 127.596C267.947 127.596 270.158 125.387 270.158 122.662C270.158 119.937 267.947 117.729 265.219 117.729C262.491 117.729 260.28 119.937 260.28 122.662C260.28 125.387 262.491 127.596 265.219 127.596Z" fill="#D0D5DD"/>
<path d="M25.11 117.96C27.1859 117.96 28.8688 116.279 28.8688 114.205C28.8688 112.131 27.1859 110.45 25.11 110.45C23.034 110.45 21.3511 112.131 21.3511 114.205C21.3511 116.279 23.034 117.96 25.11 117.96Z" fill="#D0D5DD"/>
<path d="M46.1549 18.8953C48.4631 18.8953 50.3342 17.0262 50.3342 14.7206C50.3342 12.415 48.4631 10.5459 46.1549 10.5459C43.8467 10.5459 41.9756 12.415 41.9756 14.7206C41.9756 17.0262 43.8467 18.8953 46.1549 18.8953Z" fill="#D0D5DD"/>
<path d="M274.994 41.0857C274.994 43.1561 276.674 44.8345 278.747 44.8345C280.82 44.8345 282.5 43.1561 282.5 41.0857C282.5 39.0153 280.82 37.3369 278.747 37.3369C276.674 37.3369 274.994 39.0153 274.994 41.0857Z" fill="#D0D5DD"/>
<path d="M168.733 9.97387C171.49 9.97387 173.726 7.74114 173.726 4.98693C173.726 2.23273 171.49 0 168.733 0C165.976 0 163.741 2.23273 163.741 4.98693C163.741 7.74114 165.976 9.97387 168.733 9.97387Z" fill="#D0D5DD"/>
<path d="M38.7908 96.4748C40.9119 96.4748 42.6314 95.1008 42.6314 93.4058C42.6314 91.7109 40.9119 90.3369 38.7908 90.3369C36.6697 90.3369 34.9502 91.7109 34.9502 93.4058C34.9502 95.1008 36.6697 96.4748 38.7908 96.4748Z" fill="#D0D5DD"/>
<path d="M236.805 18.8359H236.751C236.427 23.4211 233.013 23.4915 233.013 23.4915C233.013 23.4915 236.777 23.5651 236.777 28.863C236.777 23.5651 240.541 23.4915 240.541 23.4915C240.541 23.4915 237.129 23.4211 236.805 18.8359ZM242.524 138.855H242.472C242.161 143.427 238.883 143.497 238.883 143.497C238.883 143.497 242.497 143.57 242.497 148.852C242.497 143.57 246.111 143.497 246.111 143.497C246.111 143.497 242.835 143.427 242.524 138.855Z" fill="#DFE3E8"/>
<path d="M138.545 173C186.175 173 224.786 134.431 224.786 86.854C224.786 39.2769 186.175 0.708008 138.545 0.708008C90.9152 0.708008 52.3037 39.2769 52.3037 86.854C52.3037 134.431 90.9152 173 138.545 173Z" fill="#00AB55"/>
<mask id="mask0_24924_35026" style="mask-type:alpha" maskUnits="userSpaceOnUse" x="52" y="0" width="173" height="173">
<path d="M138.545 173C186.175 173 224.786 134.431 224.786 86.854C224.786 39.2769 186.175 0.708008 138.545 0.708008C90.9152 0.708008 52.3037 39.2769 52.3037 86.854C52.3037 134.431 90.9152 173 138.545 173Z" fill="#666AF6"/>
</mask>
<g mask="url(#mask0_24924_35026)">
<path d="M184.67 48.1406H92.8021C85.0559 48.1406 78.7764 54.4132 78.7764 62.1508V160.923C78.7764 168.66 85.0559 174.933 92.8021 174.933H184.67C192.417 174.933 198.696 168.66 198.696 160.923V62.1508C198.696 54.4132 192.417 48.1406 184.67 48.1406Z" fill="white"/>
<path d="M105.667 102.997C105.667 89.6409 105.667 82.9627 109.572 78.8134C113.477 74.6641 119.762 74.6641 132.333 74.6641H145.667C158.237 74.6641 164.523 74.6641 168.428 78.8134C172.333 82.9627 172.333 89.6409 172.333 102.997C172.333 116.354 172.333 123.032 168.428 127.181C164.523 131.331 158.237 131.331 145.667 131.331H132.333C119.762 131.331 113.477 131.331 109.572 127.181C105.667 123.032 105.667 116.354 105.667 102.997Z" fill="#FFC107"/>
<path d="M121.96 99.1027C125.089 97.275 127.82 98.0115 129.46 99.1847C130.133 99.6658 130.469 99.9063 130.667 99.9063C130.865 99.9063 131.201 99.6658 131.873 99.1847C133.514 98.0115 136.244 97.275 139.373 99.1027C143.479 101.501 144.408 109.415 134.937 116.091C133.133 117.362 132.231 117.998 130.667 117.998C129.102 117.998 128.2 117.362 126.396 116.091C116.925 109.415 117.854 101.501 121.96 99.1027Z" fill="white"/>
<path d="M105.667 102.997C105.667 89.6409 105.667 82.9627 109.572 78.8134C113.477 74.6641 119.762 74.6641 132.333 74.6641H145.667C158.237 74.6641 164.523 74.6641 168.428 78.8134C172.333 82.9627 172.333 89.6409 172.333 102.997C172.333 116.354 172.333 123.032 168.428 127.181C164.523 131.331 158.237 131.331 145.667 131.331H132.333C119.762 131.331 113.477 131.331 109.572 127.181C105.667 123.032 105.667 116.354 105.667 102.997Z" stroke="#212B36" stroke-width="1.5"/>
<path d="M121.96 99.1027C125.089 97.275 127.82 98.0115 129.46 99.1847C130.133 99.6658 130.469 99.9063 130.667 99.9063C130.865 99.9063 131.201 99.6658 131.873 99.1847C133.514 98.0115 136.244 97.275 139.373 99.1027C143.479 101.501 144.408 109.415 134.937 116.091C133.133 117.362 132.231 117.998 130.667 117.998C129.102 117.998 128.2 117.362 126.396 116.091C116.925 109.415 117.854 101.501 121.96 99.1027Z" stroke="#212B36" stroke-width="1.5" stroke-linecap="round"/>
<path d="M159 117.998H149" stroke="#212B36" stroke-width="1.5" stroke-linecap="round" stroke-linejoin="round"/>
</g>
<path d="M183.884 126.53C185.609 126.53 187.165 125.491 187.825 123.897C188.485 122.303 188.12 120.468 186.9 119.249C185.679 118.029 183.845 117.665 182.251 118.325C180.657 118.986 179.618 120.542 179.619 122.267C179.619 123.398 180.068 124.483 180.868 125.283C181.668 126.082 182.753 126.531 183.884 126.53Z" fill="#1890FF"/>
<path d="M116.466 65.5303C118.191 65.5303 119.747 64.491 120.407 62.897C121.067 61.3031 120.702 59.4685 119.482 58.2488C118.261 57.0291 116.427 56.6646 114.833 57.3252C113.239 57.9859 112.201 59.5416 112.201 61.2668C112.201 62.398 112.65 63.4829 113.45 64.2826C114.25 65.0823 115.335 65.5312 116.466 65.5303Z" fill="#FFC107"/>
<path d="M90.4205 147.78C94.7948 147.78 98.3409 144.234 98.3409 139.86C98.3409 135.486 94.7948 131.939 90.4205 131.939C86.0461 131.939 82.5 135.486 82.5 139.86C82.4979 141.961 83.3317 143.977 84.8175 145.463C86.3033 146.949 88.3192 147.782 90.4205 147.78Z" fill="#FF4842"/>
<defs>
<linearGradient id="paint0_linear_24924_35026" x1="125.419" y1="243.552" x2="173.554" y2="-141.467" gradientUnits="userSpaceOnUse">
<stop stop-color="white"/>
<stop offset="1" stop-color="#EEEEEE"/>
</linearGradient>
<linearGradient id="paint1_linear_24924_35026" x1="78.7856" y1="99.211" x2="116.982" y2="-72.6189" gradientUnits="userSpaceOnUse">
<stop stop-color="white"/>
<stop offset="1" stop-color="#EEEEEE"/>
</linearGradient>
<linearGradient id="paint2_linear_24924_35026" x1="57.668" y1="89.7682" x2="-34.078" y2="17.1163" gradientUnits="userSpaceOnUse">
<stop stop-color="white"/>
<stop offset="1" stop-color="#EEEEEE"/>
</linearGradient>
<linearGradient id="paint3_linear_24924_35026" x1="240.958" y1="101.403" x2="289.578" y2="56.1786" gradientUnits="userSpaceOnUse">
<stop stop-color="white"/>
<stop offset="1" stop-color="#EEEEEE"/>
</linearGradient>
</defs>
</svg>
