<svg width="283" height="173" viewBox="0 0 283 173" fill="none" xmlns="http://www.w3.org/2000/svg">
<path d="M59.0665 111.548C59.9729 134.524 109.082 176.808 162.61 154.432C187.505 144.025 184.085 130.947 201.942 111.614C212.585 100.091 228.546 90.6355 231.766 75.0351C234.549 61.5696 230.766 47.731 222.948 39.2324C205.367 20.1193 172.454 8.98929 144.378 44.3342C116.302 79.6792 56.7351 52.2927 59.0665 111.548Z" fill="url(#paint0_linear_24924_34913)"/>
<path d="M49.8551 49.5942C54.1498 57.2501 63.5551 58.3019 78.6229 56.8473C89.9549 55.751 100.289 54.9027 111.622 48.7305C119.554 44.4136 125.833 38.5731 130.416 32.9004C135.382 26.7548 142.314 19.7413 138.916 12.7733C134.246 3.20154 107.241 -4.85993 81.0181 8.32332C52.2121 22.8092 45.6541 42.1117 49.8551 49.5942Z" fill="url(#paint1_linear_24924_34913)"/>
<path d="M14.9167 72.5612C26.0496 78.0774 40.8256 70.9844 40.8256 70.9844C40.8256 70.9844 37.5419 54.9508 26.403 49.4419C15.2701 43.9254 0.5 51.0107 0.5 51.0107C0.5 51.0107 3.78377 67.0447 14.9167 72.5612Z" fill="url(#paint2_linear_24924_34913)"/>
<path d="M264.364 89.7464C258.316 93.3677 249.638 90.02 249.638 90.02C249.638 90.02 250.772 80.8027 256.825 77.1856C262.873 73.5647 271.548 76.9078 271.548 76.9078C271.548 76.9078 270.413 86.1252 264.364 89.7464Z" fill="url(#paint3_linear_24924_34913)"/>
<path d="M42.5222 151.389C44.4108 151.389 45.9417 149.86 45.9417 147.973C45.9417 146.087 44.4108 144.558 42.5222 144.558C40.6337 144.558 39.1028 146.087 39.1028 147.973C39.1028 149.86 40.6337 151.389 42.5222 151.389Z" fill="#D0D5DD"/>
<path d="M265.219 127.596C267.947 127.596 270.158 125.387 270.158 122.662C270.158 119.937 267.947 117.729 265.219 117.729C262.491 117.729 260.28 119.937 260.28 122.662C260.28 125.387 262.491 127.596 265.219 127.596Z" fill="#D0D5DD"/>
<path d="M25.11 117.96C27.1859 117.96 28.8688 116.279 28.8688 114.205C28.8688 112.131 27.1859 110.45 25.11 110.45C23.034 110.45 21.3511 112.131 21.3511 114.205C21.3511 116.279 23.034 117.96 25.11 117.96Z" fill="#D0D5DD"/>
<path d="M46.1551 18.8953C48.4633 18.8953 50.3344 17.0262 50.3344 14.7206C50.3344 12.415 48.4633 10.5459 46.1551 10.5459C43.847 10.5459 41.9758 12.415 41.9758 14.7206C41.9758 17.0262 43.847 18.8953 46.1551 18.8953Z" fill="#D0D5DD"/>
<path d="M274.994 41.0857C274.994 43.1561 276.674 44.8345 278.747 44.8345C280.82 44.8345 282.5 43.1561 282.5 41.0857C282.5 39.0153 280.82 37.3369 278.747 37.3369C276.674 37.3369 274.994 39.0153 274.994 41.0857Z" fill="#D0D5DD"/>
<path d="M168.733 9.97387C171.49 9.97387 173.726 7.74114 173.726 4.98693C173.726 2.23273 171.49 0 168.733 0C165.976 0 163.741 2.23273 163.741 4.98693C163.741 7.74114 165.976 9.97387 168.733 9.97387Z" fill="#D0D5DD"/>
<path d="M38.7905 96.4748C40.9116 96.4748 42.6311 95.1008 42.6311 93.4058C42.6311 91.7109 40.9116 90.3369 38.7905 90.3369C36.6694 90.3369 34.95 91.7109 34.95 93.4058C34.95 95.1008 36.6694 96.4748 38.7905 96.4748Z" fill="#D0D5DD"/>
<path d="M236.806 18.8359H236.751C236.427 23.4211 233.013 23.4915 233.013 23.4915C233.013 23.4915 236.778 23.5651 236.778 28.863C236.778 23.5651 240.542 23.4915 240.542 23.4915C240.542 23.4915 237.13 23.4211 236.806 18.8359ZM242.525 138.855H242.472C242.161 143.427 238.884 143.497 238.884 143.497C238.884 143.497 242.498 143.57 242.498 148.852C242.498 143.57 246.112 143.497 246.112 143.497C246.112 143.497 242.836 143.427 242.525 138.855Z" fill="#DFE3E8"/>
<path d="M138.545 173C186.175 173 224.786 134.431 224.786 86.854C224.786 39.2769 186.175 0.708008 138.545 0.708008C90.9152 0.708008 52.3037 39.2769 52.3037 86.854C52.3037 134.431 90.9152 173 138.545 173Z" fill="#00AB55"/>
<mask id="mask0_24924_34913" style="mask-type:alpha" maskUnits="userSpaceOnUse" x="52" y="0" width="173" height="173">
<path d="M138.545 173C186.175 173 224.786 134.431 224.786 86.854C224.786 39.2769 186.175 0.708008 138.545 0.708008C90.9152 0.708008 52.3037 39.2769 52.3037 86.854C52.3037 134.431 90.9152 173 138.545 173Z" fill="#666AF6"/>
</mask>
<g mask="url(#mask0_24924_34913)">
<path d="M184.671 48.1406H92.8023C85.0561 48.1406 78.7766 54.4132 78.7766 62.1508V160.923C78.7766 168.66 85.0561 174.933 92.8023 174.933H184.671C192.417 174.933 198.696 168.66 198.696 160.923V62.1508C198.696 54.4132 192.417 48.1406 184.671 48.1406Z" fill="white"/>
<path d="M112.014 71.8121L107.102 74.6795C103.15 76.9872 101.173 78.1411 100.087 80.0606C99 81.9802 99 84.3178 99 88.993V121.861C99 128.004 99 131.075 100.369 132.785C101.28 133.922 102.557 134.687 103.968 134.94C106.089 135.321 108.686 133.805 113.879 130.773C117.406 128.714 120.8 126.576 125.019 127.155C128.555 127.641 131.84 129.872 135 131.453L151 138.998H173C176.314 138.998 179 136.312 179 132.998V95.868C179 88.1095 179 84.2303 176.657 81.8201C174.314 79.4098 170.542 79.4098 163 79.4098H154.685C151.016 79.4098 150.986 79.4027 147.686 77.7514L134.359 71.0826C128.795 68.2982 126.013 66.906 123.05 67.0028C120.086 67.0995 117.395 68.6704 112.014 71.8121Z" fill="white"/>
<path d="M99 88.9952V121.863C99 128.006 99 131.077 100.369 132.787C101.28 133.924 102.557 134.689 103.968 134.943C106.089 135.323 108.686 133.807 113.879 130.775C117.406 128.716 120.8 126.578 125.019 127.158C128.555 127.644 131.84 129.874 135 131.456L151 139H175L109.558 73.248L107.102 74.6818C103.15 76.9895 101.173 78.1433 100.087 80.0629C99 81.9824 99 84.32 99 88.9952Z" fill="#FFC107"/>
<path d="M109 72.998C105.957 74.7631 101.884 76.8224 100.087 79.9773C99 81.8846 99 84.2073 99 88.8527V121.511C99 127.615 99 130.667 100.369 132.365C101.28 133.496 102.557 134.255 103.968 134.507C106.089 134.886 108.686 133.379 113.879 130.366C117.406 128.321 120.8 126.196 125.019 126.772C126.939 127.034 128.769 127.944 132.43 129.765L147.686 137.35C150.986 138.991 151.016 138.998 154.685 138.998H163C167.519 138.998 170.685 138.998 173 138.483" stroke="#212B36" stroke-width="1.5" stroke-linecap="round" stroke-linejoin="round"/>
<path d="M122.25 124.998C122.25 125.412 122.586 125.748 123 125.748C123.414 125.748 123.75 125.412 123.75 124.998H122.25ZM151.75 114.998C151.75 114.584 151.414 114.248 151 114.248C150.586 114.248 150.25 114.584 150.25 114.998H151.75ZM150.25 136.998C150.25 137.412 150.586 137.748 151 137.748C151.414 137.748 151.75 137.412 151.75 136.998H150.25ZM122.25 86.998V124.998H123.75V86.998H122.25ZM150.25 114.998V136.998H151.75V114.998H150.25Z" fill="#212B36"/>
<path d="M147.657 77.6829L147.991 77.0114H147.991L147.657 77.6829ZM134.344 71.0566L134.678 70.3851V70.3851L134.344 71.0566ZM123.045 67.0027L123.021 66.2531L123.045 67.0027ZM118.704 67.3179C118.324 67.4812 118.147 67.9221 118.311 68.3028C118.474 68.6835 118.915 68.8597 119.296 68.6964L118.704 67.3179ZM178.168 126.986C178.161 127.4 178.491 127.741 178.905 127.748C179.319 127.755 179.661 127.425 179.667 127.01L178.168 126.986ZM151.75 79.1186C151.75 78.7044 151.414 78.3686 151 78.3686C150.586 78.3686 150.25 78.7044 150.25 79.1186H151.75ZM150.25 98.998C150.25 99.4123 150.586 99.748 151 99.748C151.414 99.748 151.75 99.4123 151.75 98.998H150.25ZM147.991 77.0114L134.678 70.3851L134.01 71.728L147.323 78.3543L147.991 77.0114ZM162.955 78.5807H154.649V80.0807H162.955V78.5807ZM162.955 80.0807C166.744 80.0807 169.509 80.0824 171.622 80.3731C173.712 80.6605 175.053 81.2179 176.062 82.2498L177.134 81.2013C175.802 79.8383 174.089 79.1983 171.827 78.8871C169.587 78.579 166.701 78.5807 162.955 78.5807V80.0807ZM179.689 95.684C179.689 91.8502 179.69 88.9011 179.39 86.6143C179.087 84.3076 178.464 82.562 177.134 81.2013L176.062 82.2498C177.073 83.2841 177.621 84.6632 177.903 86.8097C178.187 88.9761 178.189 91.8087 178.189 95.684H179.689ZM134.678 70.3851C131.911 69.008 129.791 67.9516 127.991 67.2565C126.176 66.5557 124.637 66.2007 123.021 66.2531L123.07 67.7523C124.415 67.7087 125.745 67.9972 127.45 68.6557C129.17 69.3199 131.218 70.3385 134.01 71.728L134.678 70.3851ZM147.323 78.3543C148.941 79.1599 149.861 79.6207 150.842 79.8521C151.824 80.0835 152.849 80.0807 154.649 80.0807V78.5807C152.783 78.5807 151.96 78.5744 151.186 78.392C150.412 78.2096 149.669 77.8466 147.991 77.0114L147.323 78.3543ZM119.296 68.6964C120.706 68.0916 121.874 67.7912 123.07 67.7523L123.021 66.2531C121.586 66.2997 120.23 66.6633 118.704 67.3179L119.296 68.6964ZM179.667 127.01C179.84 116.569 179.689 106.104 179.689 95.684H178.189C178.189 106.134 178.34 116.559 178.168 126.986L179.667 127.01ZM150.25 79.1186V98.998H151.75V79.1186H150.25Z" fill="#212B36"/>
<path d="M99 62.998L179 142.998" stroke="#212B36" stroke-width="1.5" stroke-linecap="round" stroke-linejoin="round"/>
</g>
<path d="M183.884 126.53C185.609 126.53 187.165 125.491 187.825 123.897C188.485 122.303 188.12 120.468 186.9 119.249C185.679 118.029 183.845 117.665 182.251 118.325C180.657 118.986 179.618 120.542 179.619 122.267C179.619 123.398 180.068 124.483 180.868 125.283C181.668 126.082 182.753 126.531 183.884 126.53Z" fill="#1890FF"/>
<path d="M116.466 65.5303C118.191 65.5303 119.747 64.491 120.407 62.897C121.067 61.3031 120.702 59.4685 119.482 58.2488C118.261 57.0291 116.427 56.6646 114.833 57.3252C113.239 57.9859 112.201 59.5416 112.201 61.2668C112.201 62.398 112.65 63.4829 113.45 64.2826C114.25 65.0823 115.335 65.5312 116.466 65.5303Z" fill="#FFC107"/>
<path d="M90.4205 147.78C94.7948 147.78 98.3409 144.234 98.3409 139.86C98.3409 135.486 94.7948 131.939 90.4205 131.939C86.0461 131.939 82.5 135.486 82.5 139.86C82.4979 141.961 83.3317 143.977 84.8175 145.463C86.3033 146.949 88.3192 147.782 90.4205 147.78Z" fill="#FF4842"/>
<defs>
<linearGradient id="paint0_linear_24924_34913" x1="125.419" y1="243.552" x2="173.554" y2="-141.467" gradientUnits="userSpaceOnUse">
<stop stop-color="white"/>
<stop offset="1" stop-color="#EEEEEE"/>
</linearGradient>
<linearGradient id="paint1_linear_24924_34913" x1="78.7856" y1="99.211" x2="116.982" y2="-72.6189" gradientUnits="userSpaceOnUse">
<stop stop-color="white"/>
<stop offset="1" stop-color="#EEEEEE"/>
</linearGradient>
<linearGradient id="paint2_linear_24924_34913" x1="57.668" y1="89.7682" x2="-34.078" y2="17.1163" gradientUnits="userSpaceOnUse">
<stop stop-color="white"/>
<stop offset="1" stop-color="#EEEEEE"/>
</linearGradient>
<linearGradient id="paint3_linear_24924_34913" x1="240.958" y1="101.403" x2="289.578" y2="56.1786" gradientUnits="userSpaceOnUse">
<stop stop-color="white"/>
<stop offset="1" stop-color="#EEEEEE"/>
</linearGradient>
</defs>
</svg>
