<svg width="24" height="24" viewBox="0 0 24 24" fill="none" xmlns="http://www.w3.org/2000/svg">
<path d="M0.266602 13.7764C0.510018 15.3831 1.07694 16.8831 1.89728 18.21H22.0763C22.8967 16.8831 23.4636 15.3831 23.707 13.7764H0.266602Z" fill="#F3F4F5"/>
<path d="M18.4772 21.9043H5.49609C7.36097 23.1272 9.58991 23.8408 11.9867 23.8408C14.3834 23.8408 16.6124 23.1272 18.4772 21.9043Z" fill="#F3F4F5"/>
<path d="M1.89746 18.21C2.81212 19.6897 4.04342 20.9518 5.49628 21.9047H18.4774C19.9305 20.9518 21.1616 19.6897 22.0763 18.21H1.89746Z" fill="#DC3027"/>
<path d="M13.206 0.194007C12.805 0.152911 12.3983 0.131836 11.9865 0.131836C5.43931 0.131836 0.131836 5.43931 0.131836 11.9865C0.131836 12.5948 0.177937 13.1925 0.266452 13.7763H13.206V0.194007Z" fill="#283991"/>
<path d="M3.73753 6.21539L3.37083 5.08946L4.32579 4.3953H3.1448L3.07288 4.1748C2.69827 4.60184 2.35422 5.05574 2.04337 5.53362L1.82129 6.21539L2.77915 5.51913L3.73753 6.21539Z" fill="#F3F4F5"/>
<path d="M6.12344 2.67656L7.07709 3.36966L6.71144 2.24689L7.66534 1.54984H6.48435L6.46697 1.49609C6.09447 1.69262 5.73277 1.90653 5.38503 2.13993L5.53466 2.24873L5.1748 3.36966L6.12344 2.67656Z" fill="#F3F4F5"/>
<path d="M2.18968 10.7826L1.8235 11.9074L2.77978 11.212L3.73869 11.9074L3.37251 10.7826L4.32615 10.0871H3.14595L2.77978 8.96484L2.4136 10.0871H1.2334L2.18968 10.7826Z" fill="#F3F4F5"/>
<path d="M8.88108 10.7826L8.5149 11.9074L9.47118 11.212L10.4301 11.9074L10.0639 10.7826L11.0176 10.0871H9.83736L9.47118 8.96484L9.10764 10.0871H7.9248L8.88108 10.7826Z" fill="#F3F4F5"/>
<path d="M8.88108 5.0895L8.5149 6.21438L9.47118 5.5189L10.4301 6.21438L10.0639 5.0895L11.0176 4.39402H9.83736L9.47118 3.27441L9.10764 4.39402H7.9248L8.88108 5.0895Z" fill="#F3F4F5"/>
<path d="M5.52689 7.9352L5.16071 9.06271L6.11962 8.36724L7.0759 9.06271L6.70972 7.9352L7.666 7.24236H6.48316L6.11962 6.12012L5.75344 7.24236H4.57324L5.52689 7.9352Z" fill="#F3F4F5"/>
<path d="M23.6869 10.0811H13.2061V13.7758H23.7067C23.7952 13.1923 23.8413 12.5945 23.8413 11.9862C23.8413 11.3374 23.787 10.7017 23.6869 10.0811Z" fill="#DC3027"/>
<path d="M13.2061 10.0811H23.6869C23.4266 8.47125 22.8415 6.97097 22.0022 5.64746H13.2061V10.0811Z" fill="#F3F4F5"/>
<path d="M13.2061 5.64784H22.002C21.057 4.15783 19.7899 2.89386 18.297 1.95312H13.2061V5.64784Z" fill="#DC3027"/>
<path d="M13.2061 0.195312V1.95323H18.2972C16.7938 1.00565 15.0638 0.385778 13.2061 0.195312Z" fill="#F3F4F5"/>
</svg>
