<svg width="283" height="174" viewBox="0 0 283 174" fill="none" xmlns="http://www.w3.org/2000/svg">
<path d="M59.0665 112.386C59.9729 135.361 109.082 177.646 162.61 155.27C187.505 144.863 184.085 131.785 201.942 112.452C212.585 100.929 228.546 91.4734 231.766 75.873C234.549 62.4075 230.766 48.5689 222.948 40.0703C205.367 20.9572 172.454 9.82718 144.378 45.1721C116.302 80.5171 56.7351 53.1306 59.0665 112.386Z" fill="url(#paint0_linear_24924_37709)"/>
<path d="M49.8551 50.4321C54.1498 58.088 63.5551 59.1398 78.6229 57.6852C89.9549 56.5889 100.289 55.7406 111.622 49.5684C119.554 45.2515 125.833 39.411 130.416 33.7383C135.382 27.5927 142.314 20.5792 138.916 13.6112C134.246 4.03943 107.241 -4.02204 81.0181 9.16121C52.2121 23.6471 45.6541 42.9496 49.8551 50.4321Z" fill="url(#paint1_linear_24924_37709)"/>
<path d="M14.9167 73.3986C26.0496 78.9148 40.8256 71.8218 40.8256 71.8218C40.8256 71.8218 37.5419 55.7882 26.403 50.2793C15.2701 44.7628 0.5 51.8481 0.5 51.8481C0.5 51.8481 3.78377 67.8821 14.9167 73.3986Z" fill="url(#paint2_linear_24924_37709)"/>
<path d="M264.364 90.5848C258.316 94.2061 249.638 90.8584 249.638 90.8584C249.638 90.8584 250.772 81.6411 256.825 78.024C262.873 74.403 271.548 77.7462 271.548 77.7462C271.548 77.7462 270.413 86.9635 264.364 90.5848Z" fill="url(#paint3_linear_24924_37709)"/>
<path d="M42.522 152.227C44.4105 152.227 45.9415 150.698 45.9415 148.812C45.9415 146.925 44.4105 145.396 42.522 145.396C40.6335 145.396 39.1025 146.925 39.1025 148.812C39.1025 150.698 40.6335 152.227 42.522 152.227Z" fill="#D0D5DD"/>
<path d="M265.219 128.434C267.947 128.434 270.158 126.225 270.158 123.5C270.158 120.775 267.947 118.566 265.219 118.566C262.491 118.566 260.28 120.775 260.28 123.5C260.28 126.225 262.491 128.434 265.219 128.434Z" fill="#D0D5DD"/>
<path d="M25.11 118.798C27.1859 118.798 28.8688 117.117 28.8688 115.043C28.8688 112.969 27.1859 111.288 25.11 111.288C23.034 111.288 21.3511 112.969 21.3511 115.043C21.3511 117.117 23.034 118.798 25.11 118.798Z" fill="#D0D5DD"/>
<path d="M46.1549 19.7337C48.4631 19.7337 50.3342 17.8646 50.3342 15.559C50.3342 13.2533 48.4631 11.3843 46.1549 11.3843C43.8467 11.3843 41.9756 13.2533 41.9756 15.559C41.9756 17.8646 43.8467 19.7337 46.1549 19.7337Z" fill="#D0D5DD"/>
<path d="M274.994 41.9236C274.994 43.994 276.674 45.6724 278.747 45.6724C280.82 45.6724 282.5 43.994 282.5 41.9236C282.5 39.8532 280.82 38.1748 278.747 38.1748C276.674 38.1748 274.994 39.8532 274.994 41.9236Z" fill="#D0D5DD"/>
<path d="M168.733 10.8118C171.49 10.8118 173.726 8.57903 173.726 5.82482C173.726 3.07062 171.49 0.837891 168.733 0.837891C165.976 0.837891 163.741 3.07062 163.741 5.82482C163.741 8.57903 165.976 10.8118 168.733 10.8118Z" fill="#D0D5DD"/>
<path d="M38.7908 97.3127C40.9119 97.3127 42.6314 95.9387 42.6314 94.2437C42.6314 92.5488 40.9119 91.1748 38.7908 91.1748C36.6697 91.1748 34.9502 92.5488 34.9502 94.2437C34.9502 95.9387 36.6697 97.3127 38.7908 97.3127Z" fill="#D0D5DD"/>
<path d="M236.805 19.6743H236.751C236.427 24.2595 233.013 24.3299 233.013 24.3299C233.013 24.3299 236.777 24.4035 236.777 29.7014C236.777 24.4035 240.541 24.3299 240.541 24.3299C240.541 24.3299 237.129 24.2595 236.805 19.6743ZM242.524 139.694H242.472C242.161 144.265 238.883 144.335 238.883 144.335C238.883 144.335 242.497 144.409 242.497 149.691C242.497 144.409 246.111 144.335 246.111 144.335C246.111 144.335 242.835 144.265 242.524 139.694Z" fill="#DFE3E8"/>
<path d="M138.545 173.838C186.175 173.838 224.786 135.269 224.786 87.6919C224.786 40.1148 186.175 1.5459 138.545 1.5459C90.9152 1.5459 52.3037 40.1148 52.3037 87.6919C52.3037 135.269 90.9152 173.838 138.545 173.838Z" fill="#00AB55"/>
<mask id="mask0_24924_37709" style="mask-type:alpha" maskUnits="userSpaceOnUse" x="52" y="1" width="173" height="173">
<path d="M138.545 173.838C186.175 173.838 224.786 135.269 224.786 87.6919C224.786 40.1148 186.175 1.5459 138.545 1.5459C90.9152 1.5459 52.3037 40.1148 52.3037 87.6919C52.3037 135.269 90.9152 173.838 138.545 173.838Z" fill="#666AF6"/>
</mask>
<g mask="url(#mask0_24924_37709)">
<path d="M184.67 48.979H92.8021C85.0559 48.979 78.7764 55.2516 78.7764 62.9892V161.761C78.7764 169.499 85.0559 175.771 92.8021 175.771H184.67C192.417 175.771 198.696 169.499 198.696 161.761V62.9892C198.696 55.2516 192.417 48.979 184.67 48.979Z" fill="white"/>
<path d="M107.333 96.363V111.205C107.333 120.032 111.854 127.83 118.762 132.524C120.494 133.945 125.203 136.812 130.191 136.916C145.947 139.112 160.667 126.822 160.667 111.205V98.2822C160.667 90.5044 158.956 87.7296 158.101 85.2312C151.12 70.9188 131.999 66.0514 118.762 75.0444C116.256 77.2965 110.967 82.5044 109.857 85.3192C108.238 88.6707 107.333 92.4139 107.333 96.363Z" fill="#FFC107"/>
<path d="M120.667 99.353V108.258C120.667 113.554 122.927 118.233 126.381 121.05C127.247 121.902 129.602 123.623 132.096 123.685C139.974 125.002 147.334 117.628 147.334 108.258V100.505C147.334 95.8379 146.478 94.173 146.051 92.674C142.56 84.0865 133 81.1661 126.381 86.5619C125.128 87.9132 122.484 91.0379 121.929 92.7268C121.119 94.7376 120.667 96.9836 120.667 99.353Z" fill="white"/>
<path d="M118.762 132.524C111.854 127.83 107.333 120.032 107.333 111.205V96.363C107.333 92.4139 108.238 88.6707 109.857 85.3192M130.191 136.916C133.197 137.335 136.165 137.227 139 136.669M158.101 85.2312C151.12 70.9188 131.999 66.0514 118.762 75.0444M160.667 98.2822V102.171M134 83.8377C141.364 83.8377 147.333 90.1057 147.333 97.8377M121.95 91.8377C121.127 93.6562 120.667 95.6905 120.667 97.8377V109.838C120.667 117.57 126.636 123.838 134 123.838C134.565 123.838 135.121 123.801 135.667 123.729M134 98.8377V108.838" stroke="#161C24" stroke-width="1.5" stroke-linecap="round" stroke-linejoin="round"/>
<path d="M170.667 123.838C170.667 131.202 164.697 137.171 157.333 137.171C149.97 137.171 144 131.202 144 123.838C144 116.474 149.97 110.504 157.333 110.504C164.697 110.504 170.667 116.474 170.667 123.838Z" fill="white"/>
<path d="M153.212 124.642C152.838 124.464 152.39 124.622 152.212 124.996C152.034 125.37 152.192 125.818 152.566 125.996L153.212 124.642ZM155.852 128.282L155.206 128.663C155.346 128.902 155.607 129.043 155.884 129.031C156.161 129.02 156.409 128.856 156.528 128.606L155.852 128.282ZM162.133 121.535C162.498 121.339 162.635 120.884 162.438 120.519C162.242 120.155 161.787 120.018 161.422 120.214L162.133 121.535ZM169.917 123.838C169.917 130.787 164.283 136.421 157.333 136.421V137.921C165.111 137.921 171.417 131.616 171.417 123.838H169.917ZM157.333 136.421C150.384 136.421 144.75 130.787 144.75 123.838H143.25C143.25 131.616 149.555 137.921 157.333 137.921V136.421ZM144.75 123.838C144.75 116.888 150.384 111.254 157.333 111.254V109.754C149.555 109.754 143.25 116.06 143.25 123.838H144.75ZM157.333 111.254C164.283 111.254 169.917 116.888 169.917 123.838H171.417C171.417 116.06 165.111 109.754 157.333 109.754V111.254ZM152.889 125.319C152.566 125.996 152.566 125.996 152.565 125.996C152.565 125.996 152.565 125.996 152.565 125.996C152.565 125.996 152.565 125.995 152.564 125.995C152.564 125.995 152.563 125.995 152.563 125.995C152.563 125.995 152.563 125.995 152.563 125.995C152.563 125.995 152.566 125.996 152.569 125.998C152.576 126.001 152.59 126.008 152.608 126.018C152.646 126.038 152.705 126.072 152.781 126.119C152.935 126.213 153.159 126.363 153.422 126.575C153.948 127.001 154.624 127.676 155.206 128.663L156.498 127.901C155.81 126.733 155.004 125.927 154.366 125.41C154.047 125.151 153.768 124.964 153.565 124.84C153.463 124.777 153.38 124.73 153.32 124.698C153.29 124.682 153.265 124.669 153.247 124.66C153.238 124.655 153.231 124.651 153.225 124.649C153.222 124.647 153.219 124.646 153.217 124.645C153.216 124.644 153.215 124.644 153.214 124.643C153.214 124.643 153.213 124.643 153.213 124.643C153.213 124.643 153.212 124.643 153.212 124.643C153.212 124.642 153.212 124.642 152.889 125.319ZM155.852 128.282C156.528 128.606 156.528 128.606 156.528 128.606C156.528 128.606 156.528 128.606 156.528 128.606C156.528 128.606 156.528 128.606 156.528 128.606C156.529 128.606 156.529 128.605 156.529 128.604C156.53 128.602 156.532 128.598 156.534 128.593C156.539 128.584 156.546 128.569 156.556 128.549C156.575 128.51 156.605 128.451 156.644 128.374C156.721 128.221 156.837 127.999 156.986 127.726C157.284 127.18 157.713 126.435 158.239 125.639C159.313 124.013 160.708 122.302 162.133 121.535L161.422 120.214C159.643 121.172 158.075 123.166 156.987 124.812C156.432 125.652 155.981 126.435 155.669 127.008C155.512 127.295 155.39 127.53 155.306 127.695C155.265 127.777 155.232 127.842 155.21 127.886C155.199 127.909 155.191 127.926 155.185 127.938C155.182 127.944 155.18 127.949 155.178 127.952C155.177 127.954 155.177 127.955 155.176 127.956C155.176 127.957 155.176 127.957 155.176 127.957C155.176 127.958 155.176 127.958 155.176 127.958C155.175 127.958 155.175 127.958 155.852 128.282Z" fill="#161C24"/>
</g>
<path d="M183.884 127.368C185.609 127.368 187.165 126.329 187.825 124.735C188.485 123.141 188.12 121.306 186.9 120.087C185.679 118.867 183.845 118.502 182.251 119.163C180.657 119.824 179.618 121.379 179.619 123.105C179.619 124.236 180.068 125.321 180.868 126.12C181.668 126.92 182.753 127.369 183.884 127.368Z" fill="#1890FF"/>
<path d="M116.466 66.3682C118.191 66.3682 119.747 65.3289 120.407 63.7349C121.067 62.141 120.702 60.3064 119.482 59.0867C118.261 57.867 116.427 57.5025 114.833 58.1631C113.239 58.8238 112.201 60.3795 112.201 62.1047C112.201 63.2359 112.65 64.3208 113.45 65.1205C114.25 65.9202 115.335 66.3691 116.466 66.3682Z" fill="#FFC107"/>
<path d="M90.4205 148.619C94.7948 148.619 98.3409 145.073 98.3409 140.698C98.3409 136.324 94.7948 132.778 90.4205 132.778C86.0461 132.778 82.5 136.324 82.5 140.698C82.4979 142.8 83.3317 144.815 84.8175 146.301C86.3033 147.787 88.3192 148.621 90.4205 148.619Z" fill="#FF4842"/>
<defs>
<linearGradient id="paint0_linear_24924_37709" x1="125.419" y1="244.39" x2="173.554" y2="-140.629" gradientUnits="userSpaceOnUse">
<stop stop-color="white"/>
<stop offset="1" stop-color="#EEEEEE"/>
</linearGradient>
<linearGradient id="paint1_linear_24924_37709" x1="78.7856" y1="100.049" x2="116.982" y2="-71.781" gradientUnits="userSpaceOnUse">
<stop stop-color="white"/>
<stop offset="1" stop-color="#EEEEEE"/>
</linearGradient>
<linearGradient id="paint2_linear_24924_37709" x1="57.668" y1="90.6056" x2="-34.078" y2="17.9537" gradientUnits="userSpaceOnUse">
<stop stop-color="white"/>
<stop offset="1" stop-color="#EEEEEE"/>
</linearGradient>
<linearGradient id="paint3_linear_24924_37709" x1="240.958" y1="102.241" x2="289.578" y2="57.017" gradientUnits="userSpaceOnUse">
<stop stop-color="white"/>
<stop offset="1" stop-color="#EEEEEE"/>
</linearGradient>
</defs>
</svg>
