<svg width="23" height="22" viewBox="0 0 23 22" fill="none" xmlns="http://www.w3.org/2000/svg">
<path d="M8.61934 11.4639C6.33826 9.75848 4.71267 7.88256 3.82506 6.82794C3.5503 6.50148 3.46027 6.26257 3.40613 5.84174C3.22077 4.40074 3.12809 3.68024 3.55062 3.21512C3.97316 2.75 4.72037 2.75 6.2148 2.75H16.7852C18.2796 2.75 19.0268 2.75 19.4494 3.21512C19.8719 3.68024 19.7792 4.40074 19.5939 5.84174C19.5397 6.26258 19.4497 6.50149 19.1749 6.82795C18.2861 7.8839 16.6572 9.76315 14.3715 11.4707C14.1647 11.6252 14.0284 11.877 14.0032 12.1563C13.7767 14.6593 13.5679 16.0303 13.4379 16.7238C13.2282 17.8436 11.6404 18.5172 10.7905 19.1183C10.2846 19.4761 9.67061 19.0501 9.60505 18.4963C9.48006 17.4406 9.24464 15.2958 8.98767 12.1563C8.96458 11.8744 8.82778 11.6197 8.61934 11.4639Z" stroke="#212B36" stroke-width="1.5" stroke-linecap="round" stroke-linejoin="round"/>
</svg>
