<svg width="154" height="12" viewBox="0 0 154 12" fill="none" xmlns="http://www.w3.org/2000/svg">
<path d="M28.0686 11.5C27.6528 11.5 27.2817 11.1977 27.1923 10.7558C27.0939 10.2627 27.3935 9.77898 27.8629 9.66269C41.8885 6.21595 56.2584 3.77856 70.8206 2.37382C47.4639 2.53197 24.0805 4.3088 1.0189 7.69042C0.527086 7.76484 0.0799786 7.4067 0.00844216 6.89969C-0.0586232 6.39268 0.28118 5.91822 0.768522 5.84845C32.1954 1.23884 64.2258 -0.403122 95.9656 0.969063C96.4485 0.987668 96.8285 1.40631 96.824 1.90867C96.8196 2.41103 96.4261 2.82034 95.9433 2.825C86.183 2.97384 76.463 3.58786 66.8324 4.65305C95.7823 2.40174 125.094 3.30874 153.231 7.41134C153.718 7.48111 154.062 7.95091 153.991 8.46258C153.919 8.97424 153.472 9.32778 152.98 9.25336C112.303 3.32273 69.1618 4.09019 28.2206 11.4814C28.167 11.4907 28.1178 11.4953 28.0686 11.4953V11.5Z" fill="white"/>
</svg>
