<svg width="25" height="24" viewBox="0 0 25 24" fill="none" xmlns="http://www.w3.org/2000/svg">
<path d="M15.3002 17C14.5006 17.6224 13.4504 18 12.3002 18C11.1499 18 10.0997 17.6224 9.30017 17" stroke="#212B36" stroke-width="1.5" stroke-linecap="round"/>
<path d="M2.65156 13.2135C2.29854 10.9162 2.12203 9.76763 2.55634 8.74938C2.99064 7.73112 3.9542 7.03443 5.88131 5.64106L7.32116 4.6C9.71846 2.86667 10.9171 2 12.3002 2C13.6832 2 14.8819 2.86667 17.2792 4.6L18.719 5.64106C20.6461 7.03443 21.6097 7.73112 22.044 8.74938C22.4783 9.76763 22.3018 10.9162 21.9488 13.2135L21.6477 15.1724C21.1473 18.4289 20.8971 20.0572 19.7292 21.0286C18.5613 22 16.8538 22 13.439 22H11.1614C7.7465 22 6.03908 22 4.87117 21.0286C3.70326 20.0572 3.45304 18.4289 2.9526 15.1724L2.65156 13.2135Z" stroke="#212B36" stroke-width="1.5" stroke-linejoin="round"/>
</svg>
