<svg width="17" height="16" viewBox="0 0 17 16" fill="none" xmlns="http://www.w3.org/2000/svg">
<path d="M10.8333 7.33333C10.8333 8.622 9.78862 9.66667 8.49996 9.66667C7.21129 9.66667 6.16663 8.622 6.16663 7.33333C6.16663 6.04467 7.21129 5 8.49996 5C9.78862 5 10.8333 6.04467 10.8333 7.33333Z" stroke="#212B36"/>
<path d="M8.5 1.3335C11.747 1.3335 14.5 4.02215 14.5 7.28401C14.5 10.5978 11.7022 12.9233 9.118 14.5046C8.92967 14.6109 8.7167 14.6668 8.5 14.6668C8.2833 14.6668 8.07033 14.6109 7.882 14.5046C5.3026 12.9079 2.5 10.6093 2.5 7.28401C2.5 4.02215 5.25296 1.3335 8.5 1.3335Z" stroke="#212B36"/>
</svg>
