<svg width="13" height="16" viewBox="0 0 13 16" fill="none" xmlns="http://www.w3.org/2000/svg">
<path d="M8.83329 7.33333C8.83329 8.622 7.78862 9.66667 6.49996 9.66667C5.21129 9.66667 4.16663 8.622 4.16663 7.33333C4.16663 6.04467 5.21129 5 6.49996 5C7.78862 5 8.83329 6.04467 8.83329 7.33333Z" stroke="#212B36"/>
<path d="M6.5 1.3335C9.74704 1.3335 12.5 4.02215 12.5 7.28401C12.5 10.5978 9.70221 12.9233 7.118 14.5046C6.92967 14.6109 6.7167 14.6668 6.5 14.6668C6.2833 14.6668 6.07033 14.6109 5.882 14.5046C3.3026 12.9079 0.5 10.6093 0.5 7.28401C0.5 4.02215 3.25296 1.3335 6.5 1.3335Z" stroke="#212B36"/>
</svg>
