<svg width="282" height="173" viewBox="0 0 282 173" fill="none" xmlns="http://www.w3.org/2000/svg">
<path d="M58.5665 111.548C59.4729 134.524 108.582 176.808 162.11 154.432C187.005 144.025 183.585 130.947 201.442 111.614C212.085 100.091 228.046 90.6355 231.266 75.0351C234.049 61.5696 230.266 47.731 222.448 39.2324C204.867 20.1193 171.954 8.98929 143.878 44.3342C115.802 79.6792 56.2351 52.2927 58.5665 111.548Z" fill="url(#paint0_linear_24924_26069)"/>
<path d="M49.3551 49.5942C53.6498 57.2501 63.0551 58.3019 78.1229 56.8473C89.4549 55.751 99.7887 54.9027 111.122 48.7305C119.054 44.4136 125.333 38.5731 129.916 32.9004C134.882 26.7548 141.814 19.7413 138.416 12.7733C133.746 3.20154 106.741 -4.85993 80.5181 8.32332C51.7121 22.8092 45.1541 42.1117 49.3551 49.5942Z" fill="url(#paint1_linear_24924_26069)"/>
<path d="M14.4167 72.5607C25.5496 78.0769 40.3256 70.9839 40.3256 70.9839C40.3256 70.9839 37.0419 54.9503 25.903 49.4415C14.7701 43.9249 0 51.0102 0 51.0102C0 51.0102 3.28377 67.0442 14.4167 72.5607Z" fill="url(#paint2_linear_24924_26069)"/>
<path d="M263.864 89.7469C257.816 93.3682 249.138 90.0205 249.138 90.0205C249.138 90.0205 250.272 80.8032 256.325 77.1861C262.373 73.5651 271.048 76.9083 271.048 76.9083C271.048 76.9083 269.913 86.1256 263.864 89.7469Z" fill="url(#paint3_linear_24924_26069)"/>
<path d="M42.0222 151.389C43.9108 151.389 45.4417 149.86 45.4417 147.974C45.4417 146.087 43.9108 144.558 42.0222 144.558C40.1337 144.558 38.6028 146.087 38.6028 147.974C38.6028 149.86 40.1337 151.389 42.0222 151.389Z" fill="#D0D5DD"/>
<path d="M264.719 127.596C267.447 127.596 269.658 125.387 269.658 122.662C269.658 119.937 267.447 117.729 264.719 117.729C261.991 117.729 259.78 119.937 259.78 122.662C259.78 125.387 261.991 127.596 264.719 127.596Z" fill="#D0D5DD"/>
<path d="M24.61 117.96C26.6859 117.96 28.3688 116.279 28.3688 114.205C28.3688 112.131 26.6859 110.45 24.61 110.45C22.534 110.45 20.8511 112.131 20.8511 114.205C20.8511 116.279 22.534 117.96 24.61 117.96Z" fill="#D0D5DD"/>
<path d="M45.6551 18.8958C47.9633 18.8958 49.8344 17.0267 49.8344 14.7211C49.8344 12.4155 47.9633 10.5464 45.6551 10.5464C43.347 10.5464 41.4758 12.4155 41.4758 14.7211C41.4758 17.0267 43.347 18.8958 45.6551 18.8958Z" fill="#D0D5DD"/>
<path d="M274.494 41.0857C274.494 43.1561 276.174 44.8345 278.247 44.8345C280.32 44.8345 282 43.1561 282 41.0857C282 39.0153 280.32 37.3369 278.247 37.3369C276.174 37.3369 274.494 39.0153 274.494 41.0857Z" fill="#D0D5DD"/>
<path d="M168.233 9.97387C170.99 9.97387 173.226 7.74114 173.226 4.98693C173.226 2.23273 170.99 0 168.233 0C165.476 0 163.241 2.23273 163.241 4.98693C163.241 7.74114 165.476 9.97387 168.233 9.97387Z" fill="#D0D5DD"/>
<path d="M38.2905 96.4748C40.4116 96.4748 42.1311 95.1008 42.1311 93.4058C42.1311 91.7109 40.4116 90.3369 38.2905 90.3369C36.1694 90.3369 34.45 91.7109 34.45 93.4058C34.45 95.1008 36.1694 96.4748 38.2905 96.4748Z" fill="#D0D5DD"/>
<path d="M236.306 18.8364H236.251C235.927 23.4216 232.513 23.492 232.513 23.492C232.513 23.492 236.278 23.5656 236.278 28.8635C236.278 23.5656 240.042 23.492 240.042 23.492C240.042 23.492 236.63 23.4216 236.306 18.8364ZM242.025 138.856H241.972C241.661 143.427 238.384 143.497 238.384 143.497C238.384 143.497 241.998 143.571 241.998 148.853C241.998 143.571 245.612 143.497 245.612 143.497C245.612 143.497 242.336 143.427 242.025 138.856Z" fill="#DFE3E8"/>
<path d="M138.045 173C185.675 173 224.286 134.431 224.286 86.854C224.286 39.2769 185.675 0.708008 138.045 0.708008C90.4152 0.708008 51.8037 39.2769 51.8037 86.854C51.8037 134.431 90.4152 173 138.045 173Z" fill="#00AB55"/>
<mask id="mask0_24924_26069" style="mask-type:alpha" maskUnits="userSpaceOnUse" x="51" y="0" width="174" height="173">
<path d="M138.045 173C185.675 173 224.286 134.431 224.286 86.854C224.286 39.2769 185.675 0.708008 138.045 0.708008C90.4152 0.708008 51.8037 39.2769 51.8037 86.854C51.8037 134.431 90.4152 173 138.045 173Z" fill="#666AF6"/>
</mask>
<g mask="url(#mask0_24924_26069)">
<path d="M184.171 48.1411H92.3023C84.5561 48.1411 78.2766 54.4137 78.2766 62.1513V160.923C78.2766 168.661 84.5561 174.933 92.3023 174.933H184.171C191.917 174.933 198.196 168.661 198.196 160.923V62.1513C198.196 54.4137 191.917 48.1411 184.171 48.1411Z" fill="white"/>
<path d="M111.167 71.0063C113.487 69.6665 116.603 69.6665 122.833 69.6665H156.167C162.398 69.6665 165.513 69.6665 167.833 71.0063C169.354 71.8839 170.616 73.1463 171.494 74.6665C172.833 76.987 172.833 80.1024 172.833 86.3332C172.833 92.5639 172.833 95.6793 171.494 97.9998C170.616 99.52 169.354 100.782 167.833 101.66C165.513 103 162.398 103 156.167 103H156.167L122.833 103C116.603 103 113.487 103 111.167 101.66C109.647 100.782 108.384 99.52 107.506 97.9998C106.167 95.6793 106.167 92.5639 106.167 86.3332C106.167 80.1024 106.167 76.987 107.506 74.6665C108.384 73.1463 109.647 71.8839 111.167 71.0063Z" fill="white"/>
<path d="M172.833 116.333C172.833 105.287 163.879 96.333 152.833 96.333C141.788 96.333 132.833 105.287 132.833 116.333C132.833 127.379 141.788 136.333 152.833 136.333C163.879 136.333 172.833 127.379 172.833 116.333Z" fill="white"/>
<path d="M172.833 116.333C172.833 105.287 163.879 96.333 152.833 96.333C141.788 96.333 132.833 105.287 132.833 116.333C132.833 127.379 141.788 136.333 152.833 136.333C163.879 136.333 172.833 127.379 172.833 116.333Z" fill="#FFC107"/>
<path d="M172.834 116.333C172.834 105.287 163.879 96.333 152.833 96.333C141.788 96.333 132.833 105.287 132.833 116.333C132.833 127.379 141.788 136.333 152.833 136.333C163.879 136.333 172.834 127.379 172.834 116.333Z" stroke="#161C24" stroke-width="1.5"/>
<path d="M146.167 118.555C146.167 118.555 148.25 118.555 150.333 123C150.333 123 156.951 111.889 162.833 109.667" stroke="white" stroke-width="1.5" stroke-linecap="round" stroke-linejoin="round"/>
<path d="M111.167 101.66L111.542 101.011H111.542L111.167 101.66ZM107.506 97.9998L106.857 98.3748H106.857L107.506 97.9998ZM167.833 71.0062L167.458 71.6558L167.458 71.6558L167.833 71.0062ZM171.494 74.6665L172.143 74.2915V74.2915L171.494 74.6665ZM111.167 71.0062L111.542 71.6558L111.167 71.0062ZM107.506 74.6665L108.156 75.0415L107.506 74.6665ZM171.903 93.7354C171.862 94.1477 172.164 94.5147 172.576 94.5551C172.988 94.5956 173.355 94.2942 173.396 93.882L171.903 93.7354ZM125.952 103.75C126.366 103.75 126.702 103.414 126.702 103C126.702 102.586 126.366 102.25 125.952 102.25V103.75ZM122.833 70.4165H156.167V68.9165H122.833V70.4165ZM122.833 102.25C119.704 102.25 117.407 102.249 115.601 102.085C113.806 101.923 112.569 101.604 111.542 101.011L110.792 102.31C112.085 103.056 113.566 103.407 115.466 103.579C117.355 103.751 119.732 103.75 122.833 103.75V102.25ZM105.417 86.3332C105.417 89.4348 105.416 91.8111 105.587 93.7006C105.759 95.6003 106.11 97.0814 106.857 98.3748L108.156 97.6248C107.563 96.5978 107.244 95.3609 107.081 93.5652C106.917 91.7591 106.917 89.4624 106.917 86.3332H105.417ZM111.542 101.011C110.136 100.199 108.968 99.031 108.156 97.6248L106.857 98.3748C107.8 100.009 109.158 101.366 110.792 102.31L111.542 101.011ZM156.167 70.4165C159.296 70.4165 161.593 70.4172 163.399 70.5809C165.194 70.7437 166.431 71.0628 167.458 71.6558L168.208 70.3567C166.915 69.61 165.434 69.2592 163.534 69.087C161.645 68.9158 159.268 68.9165 156.167 68.9165V70.4165ZM173.583 86.3332C173.583 83.2316 173.584 80.8553 173.413 78.9658C173.241 77.066 172.89 75.5849 172.143 74.2915L170.844 75.0415C171.437 76.0686 171.756 77.3054 171.919 79.1012C172.083 80.9072 172.083 83.204 172.083 86.3332H173.583ZM167.458 71.6558C168.865 72.4676 170.032 73.6353 170.844 75.0415L172.143 74.2915C171.2 72.6573 169.843 71.3002 168.208 70.3567L167.458 71.6558ZM122.833 68.9165C119.732 68.9165 117.355 68.9158 115.466 69.087C113.566 69.2592 112.085 69.61 110.792 70.3567L111.542 71.6558C112.569 71.0628 113.806 70.7437 115.601 70.5809C117.407 70.4172 119.704 70.4165 122.833 70.4165V68.9165ZM106.917 86.3332C106.917 83.204 106.917 80.9072 107.081 79.1012C107.244 77.3054 107.563 76.0686 108.156 75.0415L106.857 74.2915C106.11 75.5849 105.759 77.066 105.587 78.9658C105.416 80.8553 105.417 83.2316 105.417 86.3332H106.917ZM110.792 70.3567C109.158 71.3002 107.8 72.6573 106.857 74.2915L108.156 75.0415C108.968 73.6353 110.136 72.4676 111.542 71.6558L110.792 70.3567ZM172.083 86.3332C172.083 89.5634 172.083 91.9057 171.903 93.7354L173.396 93.882C173.584 91.9619 173.583 89.533 173.583 86.3332H172.083ZM125.952 102.25H122.833V103.75H125.952V102.25Z" fill="#161C24"/>
<path d="M156.167 86.333H156.197" stroke="#161C24" stroke-width="2" stroke-linecap="round" stroke-linejoin="round"/>
<path d="M139.5 86.333H139.53" stroke="#161C24" stroke-width="2" stroke-linecap="round" stroke-linejoin="round"/>
<path d="M122.833 86.333H122.863" stroke="#161C24" stroke-width="2" stroke-linecap="round" stroke-linejoin="round"/>
</g>
<path d="M183.384 126.53C185.109 126.53 186.665 125.491 187.325 123.897C187.985 122.303 187.62 120.468 186.4 119.249C185.179 118.029 183.345 117.665 181.751 118.325C180.157 118.986 179.118 120.542 179.119 122.267C179.119 123.398 179.568 124.483 180.368 125.283C181.168 126.082 182.253 126.531 183.384 126.53Z" fill="#1890FF"/>
<path d="M115.966 65.5303C117.691 65.5303 119.247 64.491 119.907 62.897C120.567 61.3031 120.202 59.4685 118.982 58.2488C117.761 57.0291 115.927 56.6646 114.333 57.3252C112.739 57.9859 111.701 59.5416 111.701 61.2668C111.701 62.398 112.15 63.4829 112.95 64.2826C113.75 65.0823 114.835 65.5312 115.966 65.5303Z" fill="#FFC107"/>
<path d="M89.9205 147.781C94.2948 147.781 97.8409 144.235 97.8409 139.86C97.8409 135.486 94.2948 131.94 89.9205 131.94C85.5461 131.94 82 135.486 82 139.86C81.9979 141.962 82.8317 143.978 84.3175 145.463C85.8033 146.949 87.8192 147.783 89.9205 147.781Z" fill="#FF4842"/>
<defs>
<linearGradient id="paint0_linear_24924_26069" x1="124.919" y1="243.552" x2="173.054" y2="-141.467" gradientUnits="userSpaceOnUse">
<stop stop-color="white"/>
<stop offset="1" stop-color="#EEEEEE"/>
</linearGradient>
<linearGradient id="paint1_linear_24924_26069" x1="78.2856" y1="99.211" x2="116.482" y2="-72.6189" gradientUnits="userSpaceOnUse">
<stop stop-color="white"/>
<stop offset="1" stop-color="#EEEEEE"/>
</linearGradient>
<linearGradient id="paint2_linear_24924_26069" x1="57.168" y1="89.7677" x2="-34.578" y2="17.1158" gradientUnits="userSpaceOnUse">
<stop stop-color="white"/>
<stop offset="1" stop-color="#EEEEEE"/>
</linearGradient>
<linearGradient id="paint3_linear_24924_26069" x1="240.458" y1="101.403" x2="289.078" y2="56.1791" gradientUnits="userSpaceOnUse">
<stop stop-color="white"/>
<stop offset="1" stop-color="#EEEEEE"/>
</linearGradient>
</defs>
</svg>
