<svg width="217" height="145" viewBox="0 0 217 145" fill="none" xmlns="http://www.w3.org/2000/svg">
<g clip-path="url(#clip0_24924_36087)">
<path d="M53.7166 89.6655C54.3399 105.518 88.1085 134.693 124.916 119.254C142.035 112.074 139.682 103.05 151.961 89.7109C159.28 81.7603 170.255 75.2363 172.47 64.4724C174.383 55.1816 171.782 45.6333 166.406 39.7695C154.317 26.582 131.685 18.9026 112.379 43.2896C93.073 67.6767 52.1135 48.7808 53.7166 89.6655Z" fill="url(#paint0_linear_24924_36087)"/>
<path d="M47.3817 46.9198C50.3349 52.2021 56.8022 52.9279 67.1632 51.9242C74.9554 51.1678 82.0612 50.5825 89.8542 46.3238C95.3086 43.3453 99.6262 39.3155 102.778 35.4015C106.192 31.1612 110.959 26.3221 108.622 21.5143C105.411 14.9101 86.8417 9.34787 68.8102 18.444C49.0025 28.4388 44.493 41.7571 47.3817 46.9198Z" fill="url(#paint1_linear_24924_36087)"/>
<path d="M23.3576 62.7654C31.0129 66.5714 41.1733 61.6774 41.1733 61.6774C41.1733 61.6774 38.9153 50.6146 31.2559 46.8137C23.6007 43.0074 13.4443 47.8961 13.4443 47.8961C13.4443 47.8961 15.7023 58.9591 23.3576 62.7654Z" fill="url(#paint2_linear_24924_36087)"/>
<path d="M194.884 74.6229C190.725 77.1215 184.758 74.8117 184.758 74.8117C184.758 74.8117 185.538 68.452 189.7 65.9563C193.859 63.4579 199.824 65.7646 199.824 65.7646C199.824 65.7646 199.043 72.1243 194.884 74.6229Z" fill="url(#paint3_linear_24924_36087)"/>
<path d="M42.3396 117.156C43.6382 117.156 44.6909 116.101 44.6909 114.799C44.6909 113.498 43.6382 112.442 42.3396 112.442C41.041 112.442 39.9883 113.498 39.9883 114.799C39.9883 116.101 41.041 117.156 42.3396 117.156Z" fill="#DFE3E8"/>
<path d="M195.471 100.739C197.347 100.739 198.868 99.2148 198.868 97.3348C198.868 95.4547 197.347 93.9307 195.471 93.9307C193.596 93.9307 192.075 95.4547 192.075 97.3348C192.075 99.2148 193.596 100.739 195.471 100.739Z" fill="#DFE3E8"/>
<path d="M30.3669 94.0895C31.7944 94.0895 32.9516 92.9297 32.9516 91.4989C32.9516 90.0681 31.7944 88.9082 30.3669 88.9082C28.9394 88.9082 27.7822 90.0681 27.7822 91.4989C27.7822 92.9297 28.9394 94.0895 30.3669 94.0895Z" fill="#DFE3E8"/>
<path d="M44.8377 25.7384C46.4248 25.7384 47.7115 24.4488 47.7115 22.858C47.7115 21.2671 46.4248 19.9775 44.8377 19.9775C43.2505 19.9775 41.9639 21.2671 41.9639 22.858C41.9639 24.4488 43.2505 25.7384 44.8377 25.7384Z" fill="#DFE3E8"/>
<path d="M202.194 41.0485C202.194 42.477 203.35 43.635 204.775 43.635C206.2 43.635 207.355 42.477 207.355 41.0485C207.355 39.62 206.2 38.4619 204.775 38.4619C203.35 38.4619 202.194 39.62 202.194 41.0485Z" fill="#DFE3E8"/>
<path d="M129.127 19.5819C131.023 19.5819 132.56 18.0414 132.56 16.141C132.56 14.2407 131.023 12.7002 129.127 12.7002C127.231 12.7002 125.694 14.2407 125.694 16.141C125.694 18.0414 127.231 19.5819 129.127 19.5819Z" fill="#DFE3E8"/>
<path d="M39.7747 79.2662C41.2332 79.2662 42.4156 78.3182 42.4156 77.1487C42.4156 75.9793 41.2332 75.0312 39.7747 75.0312C38.3162 75.0312 37.1338 75.9793 37.1338 77.1487C37.1338 78.3182 38.3162 79.2662 39.7747 79.2662Z" fill="#DFE3E8"/>
<path d="M175.935 25.6973H175.897C175.674 28.8609 173.327 28.9095 173.327 28.9095C173.327 28.9095 175.915 28.9603 175.915 32.6157C175.915 28.9603 178.504 28.9095 178.504 28.9095C178.504 28.9095 176.158 28.8609 175.935 25.6973ZM179.867 108.507H179.831C179.617 111.661 177.364 111.71 177.364 111.71C177.364 111.71 179.849 111.761 179.849 115.405C179.849 111.761 182.334 111.71 182.334 111.71C182.334 111.71 180.081 111.661 179.867 108.507Z" fill="#DFE3E8"/>
<path d="M108.368 132.066C141.12 132.066 167.67 105.455 167.67 72.6279C167.67 39.8009 141.12 13.1895 108.368 13.1895C75.6167 13.1895 49.0664 39.8009 49.0664 72.6279C49.0664 105.455 75.6167 132.066 108.368 132.066Z" fill="#FFC107"/>
<mask id="mask0_24924_36087" style="mask-type:alpha" maskUnits="userSpaceOnUse" x="49" y="13" width="119" height="120">
<path d="M108.368 132.066C141.12 132.066 167.67 105.455 167.67 72.6279C167.67 39.8009 141.12 13.1895 108.368 13.1895C75.6167 13.1895 49.0664 39.8009 49.0664 72.6279C49.0664 105.455 75.6167 132.066 108.368 132.066Z" fill="#666AF6"/>
</mask>
<g mask="url(#mask0_24924_36087)">
<path d="M140.085 45.917H76.914C71.5875 45.917 67.2695 50.2449 67.2695 55.5837V123.734C67.2695 129.072 71.5875 133.4 76.914 133.4H140.085C145.412 133.4 149.73 129.072 149.73 123.734V55.5837C149.73 50.2449 145.412 45.917 140.085 45.917Z" fill="white"/>
<path fill-rule="evenodd" clip-rule="evenodd" d="M86.9463 102.633C86.9463 101.575 87.801 100.717 88.8554 100.717H128.118C129.172 100.717 130.027 101.575 130.027 102.633C130.027 103.691 129.172 104.549 128.118 104.549H88.8554C87.801 104.549 86.9463 103.691 86.9463 102.633ZM93.329 113.342C93.329 112.283 94.1837 111.426 95.2381 111.426H121.76C122.815 111.426 123.669 112.283 123.669 113.342C123.669 114.4 122.815 115.258 121.76 115.258H95.2381C94.1837 115.258 93.329 114.4 93.329 113.342Z" fill="#DFE3E8"/>
<path d="M93 76C93 84.2843 99.7157 91 108 91C109.146 91 110.261 90.8716 111.333 90.6283V61.3717C110.261 61.1284 109.146 61 108 61C99.7157 61 93 67.7157 93 76Z" fill="#FFC107"/>
<path d="M111.333 61.1584C110.572 61.054 109.793 61 109 61C100.163 61 93 67.7157 93 76C93 84.2843 100.163 91 109 91C109.793 91 110.572 90.946 111.333 90.8416" stroke="#212B36" stroke-linecap="round"/>
<path d="M123 75.9997L106.333 75.9997M123 75.9997C123 74.8326 119.676 72.6522 118.833 71.833M123 75.9997C123 77.1667 119.676 79.3471 118.833 80.1663" stroke="#212B36" stroke-linecap="round" stroke-linejoin="round"/>
</g>
</g>
<defs>
<linearGradient id="paint0_linear_24924_36087" x1="99.3421" y1="180.745" x2="132.664" y2="-84.8804" gradientUnits="userSpaceOnUse">
<stop stop-color="white"/>
<stop offset="1" stop-color="#EEEEEE"/>
</linearGradient>
<linearGradient id="paint1_linear_24924_36087" x1="67.2751" y1="81.154" x2="93.7112" y2="-37.3659" gradientUnits="userSpaceOnUse">
<stop stop-color="white"/>
<stop offset="1" stop-color="#EEEEEE"/>
</linearGradient>
<linearGradient id="paint2_linear_24924_36087" x1="52.7546" y1="74.6377" x2="-10.4979" y2="24.7196" gradientUnits="userSpaceOnUse">
<stop stop-color="white"/>
<stop offset="1" stop-color="#EEEEEE"/>
</linearGradient>
<linearGradient id="paint3_linear_24924_36087" x1="178.789" y1="82.6656" x2="212.327" y2="51.576" gradientUnits="userSpaceOnUse">
<stop stop-color="white"/>
<stop offset="1" stop-color="#EEEEEE"/>
</linearGradient>
<clipPath id="clip0_24924_36087">
<rect width="217" height="145" fill="white"/>
</clipPath>
</defs>
</svg>
