<svg width="23" height="22" viewBox="0 0 23 22" fill="none" xmlns="http://www.w3.org/2000/svg">
<path d="M1.5 12.4286V7H21.5V12.4286C21.5 16.4692 21.5 18.4895 20.1983 19.7447C18.8965 21 16.8014 21 12.6111 21H10.3889C6.19863 21 4.1035 21 2.80175 19.7447C1.5 18.4895 1.5 16.4692 1.5 12.4286Z" stroke="white" stroke-width="1.5" stroke-linecap="round" stroke-linejoin="round"/>
<path d="M1.5 7L2.46154 4.69231C3.20726 2.90257 3.58013 2.0077 4.3359 1.50385C5.09167 1 6.06112 1 8 1H15C16.9389 1 17.9083 1 18.6641 1.50385C19.4199 2.0077 19.7927 2.90257 20.5385 4.69231L21.5 7" stroke="white" stroke-width="1.5" stroke-linecap="round"/>
<path d="M11.5 7V1" stroke="white" stroke-width="1.5" stroke-linecap="round"/>
<path d="M9.5 11H13.5" stroke="white" stroke-width="1.5" stroke-linecap="round"/>
</svg>
