<svg width="24" height="25" viewBox="0 0 24 25" fill="none" xmlns="http://www.w3.org/2000/svg">
<path d="M2.52992 15.6075C2.31727 17.0015 3.268 17.9691 4.43205 18.4513C8.89481 20.3001 15.1052 20.3001 19.5679 18.4513C20.732 17.9691 21.6827 17.0015 21.4701 15.6075C21.3394 14.7508 20.6932 14.0374 20.2144 13.3408C19.5873 12.4172 19.525 11.4097 19.5249 10.3379C19.5249 6.19576 16.1559 2.83789 12 2.83789C7.84413 2.83789 4.47513 6.19576 4.47513 10.3379C4.47503 11.4097 4.41272 12.4172 3.78561 13.3408C3.30684 14.0374 2.66061 14.7508 2.52992 15.6075Z" stroke="#212B36" stroke-width="1.5" stroke-linecap="round" stroke-linejoin="round"/>
<path d="M8 19.8379C8.45849 21.5631 10.0755 22.8379 12 22.8379C13.9245 22.8379 15.5415 21.5631 16 19.8379" stroke="#212B36" stroke-width="1.5" stroke-linecap="round" stroke-linejoin="round"/>
</svg>
