<svg width="257" height="172" viewBox="0 0 257 172" fill="none" xmlns="http://www.w3.org/2000/svg">
<g clip-path="url(#clip0_24924_36530)">
<path d="M63.6176 106.362C64.3558 125.166 104.349 159.774 147.941 141.461C168.215 132.943 165.43 122.239 179.972 106.416C188.64 96.9848 201.638 89.2459 204.261 76.4778C206.527 65.4569 203.446 54.1307 197.079 47.175C182.762 31.5319 155.958 22.4225 133.094 51.3506C110.229 80.2787 61.719 57.8642 63.6176 106.362Z" fill="url(#paint0_linear_24924_36530)"/>
<path d="M56.1161 55.6558C59.6136 61.9217 67.2731 62.7826 79.544 61.5921C88.7726 60.6948 97.1882 60.0005 106.418 54.9488C112.877 51.4157 117.991 46.6355 121.723 41.9927C125.767 36.9628 131.413 31.2226 128.645 25.5196C124.842 17.6856 102.85 11.0877 81.4946 21.8775C58.0356 33.7335 52.6949 49.5317 56.1161 55.6558Z" fill="url(#paint1_linear_24924_36530)"/>
<path d="M27.6625 74.453C36.7289 78.9677 48.7622 73.1624 48.7622 73.1624C48.7622 73.1624 46.088 60.0397 37.0167 55.531C27.9503 51.016 15.9219 56.815 15.9219 56.815C15.9219 56.815 18.5961 69.938 27.6625 74.453Z" fill="url(#paint2_linear_24924_36530)"/>
<path d="M230.808 88.5186C225.882 91.4824 218.814 88.7425 218.814 88.7425C218.814 88.7425 219.739 81.1986 224.667 78.2381C229.593 75.2746 236.657 78.0108 236.657 78.0108C236.657 78.0108 235.733 85.5547 230.808 88.5186Z" fill="url(#paint3_linear_24924_36530)"/>
<path d="M50.1446 138.97C51.6826 138.97 52.9293 137.718 52.9293 136.174C52.9293 134.631 51.6826 133.379 50.1446 133.379C48.6066 133.379 47.3599 134.631 47.3599 136.174C47.3599 137.718 48.6066 138.97 50.1446 138.97Z" fill="#D0D5DD"/>
<path d="M231.503 119.497C233.725 119.497 235.526 117.689 235.526 115.459C235.526 113.229 233.725 111.421 231.503 111.421C229.282 111.421 227.481 113.229 227.481 115.459C227.481 117.689 229.282 119.497 231.503 119.497Z" fill="#D0D5DD"/>
<path d="M35.964 111.61C37.6546 111.61 39.0251 110.234 39.0251 108.537C39.0251 106.84 37.6546 105.464 35.964 105.464C34.2734 105.464 32.9028 106.84 32.9028 108.537C32.9028 110.234 34.2734 111.61 35.964 111.61Z" fill="#D0D5DD"/>
<path d="M53.1023 30.5308C54.982 30.5308 56.5058 29.0011 56.5058 27.114C56.5058 25.227 54.982 23.6973 53.1023 23.6973C51.2225 23.6973 49.6987 25.227 49.6987 27.114C49.6987 29.0011 51.2225 30.5308 53.1023 30.5308Z" fill="#D0D5DD"/>
<path d="M239.465 48.6922C239.465 50.3867 240.833 51.7604 242.521 51.7604C244.209 51.7604 245.578 50.3867 245.578 48.6922C245.578 46.9977 244.209 45.624 242.521 45.624C240.833 45.624 239.465 46.9977 239.465 48.6922Z" fill="#D0D5DD"/>
<path d="M152.929 23.2285C155.174 23.2285 156.995 21.4012 156.995 19.147C156.995 16.8928 155.174 15.0654 152.929 15.0654C150.684 15.0654 148.863 16.8928 148.863 19.147C148.863 21.4012 150.684 23.2285 152.929 23.2285Z" fill="#D0D5DD"/>
<path d="M47.1062 94.0255C48.8336 94.0255 50.2339 92.9009 50.2339 91.5137C50.2339 90.1265 48.8336 89.002 47.1062 89.002C45.3788 89.002 43.9785 90.1265 43.9785 91.5137C43.9785 92.9009 45.3788 94.0255 47.1062 94.0255Z" fill="#D0D5DD"/>
<path d="M208.365 30.4814H208.32C208.056 34.2342 205.276 34.2918 205.276 34.2918C205.276 34.2918 208.342 34.352 208.342 38.6881C208.342 34.352 211.407 34.2918 211.407 34.2918C211.407 34.2918 208.629 34.2342 208.365 30.4814ZM213.022 128.712H212.979C212.726 132.453 210.057 132.51 210.057 132.51C210.057 132.51 213 132.57 213 136.894C213 132.57 215.943 132.51 215.943 132.51C215.943 132.51 213.275 132.453 213.022 128.712Z" fill="#E1E4E5"/>
<path d="M128.344 156.658C167.133 156.658 198.577 125.091 198.577 86.1517C198.577 47.2122 167.133 15.6455 128.344 15.6455C89.5557 15.6455 58.1113 47.2122 58.1113 86.1517C58.1113 125.091 89.5557 156.658 128.344 156.658Z" fill="#00AB55"/>
<mask id="mask0_24924_36530" style="mask-type:alpha" maskUnits="userSpaceOnUse" x="58" y="15" width="141" height="142">
<path d="M128.344 156.658C167.133 156.658 198.577 125.091 198.577 86.1517C198.577 47.2122 167.133 15.6455 128.344 15.6455C89.5557 15.6455 58.1113 47.2122 58.1113 86.1517C58.1113 125.091 89.5557 156.658 128.344 156.658Z" fill="#666AF6"/>
</mask>
<g mask="url(#mask0_24924_36530)">
<path d="M165.908 54.4668H91.0926C84.7843 54.4668 79.6704 59.6006 79.6704 65.9335V146.773C79.6704 153.106 84.7843 158.24 91.0926 158.24H165.908C172.217 158.24 177.33 153.106 177.33 146.773V65.9335C177.33 59.6006 172.217 54.4668 165.908 54.4668Z" fill="white"/>
<path fill-rule="evenodd" clip-rule="evenodd" d="M102.975 109.08C102.975 107.824 103.987 106.807 105.236 106.807H151.735C152.984 106.807 153.996 107.824 153.996 109.08C153.996 110.335 152.984 111.353 151.735 111.353H105.236C103.987 111.353 102.975 110.335 102.975 109.08ZM102.975 121.744C102.975 120.488 103.987 119.471 105.236 119.471H151.735C152.984 119.471 153.996 120.488 153.996 121.744C153.996 122.999 152.984 124.017 151.735 124.017H105.236C103.987 124.017 102.975 122.999 102.975 121.744ZM110.534 134.447C110.534 133.191 111.546 132.173 112.795 132.173H144.206C145.455 132.173 146.467 133.191 146.467 134.447C146.467 135.702 145.455 136.72 144.206 136.72H112.795C111.546 136.72 110.534 135.702 110.534 134.447Z" fill="#D0D5DD"/>
<path d="M124.714 70.9501C123.75 71.9197 122.794 72.3699 121.419 72.3699C120.219 72.3699 118.51 72.1358 117.572 73.0869C116.642 74.0306 116.873 75.7408 116.873 76.9401C116.873 78.3225 116.426 79.2833 115.461 80.2529C113.854 81.8687 113.05 82.6766 113.05 83.6805C113.05 84.6844 113.854 85.4924 115.461 87.1082C116.542 88.1944 116.873 88.8957 116.873 90.421C116.873 91.628 116.64 93.3452 117.587 94.2885C118.525 95.2242 120.226 94.9912 121.419 94.9912C122.883 94.9912 123.588 95.2792 124.633 96.3298C125.523 97.2244 126.716 98.8347 128.124 98.8347C129.531 98.8347 130.724 97.2244 131.614 96.3298C132.659 95.2792 133.364 94.9912 134.828 94.9912C136.021 94.9912 137.722 95.2242 138.661 94.2885C139.607 93.3452 139.374 91.628 139.374 90.421C139.374 88.8958 139.706 88.1943 140.786 87.1082C142.393 85.4924 143.197 84.6844 143.197 83.6805C143.197 82.6766 142.393 81.8687 140.786 80.2529C139.706 79.1667 139.374 78.4654 139.374 76.9401C139.374 75.7331 139.607 74.0159 138.661 73.0726C137.722 72.1368 136.021 72.3699 134.828 72.3699C133.453 72.3699 132.497 71.9195 131.533 70.9501C129.926 69.3343 129.122 68.5264 128.124 68.5264C127.125 68.5264 126.321 69.3343 124.714 70.9501Z" fill="#00AB55"/>
<path d="M131.533 70.9501C129.926 69.3343 129.122 68.5264 128.124 68.5264C127.125 68.5264 126.321 69.3343 124.714 70.9501C123.75 71.9197 122.794 72.3699 121.419 72.3699C120.219 72.3699 118.51 72.1358 117.572 73.0869C116.642 74.0306 116.873 75.7408 116.873 76.9401C116.873 78.3225 116.426 79.2833 115.461 80.2529C113.854 81.8687 113.05 82.6766 113.05 83.6805C113.05 84.6844 113.854 85.4924 115.461 87.1082C116.542 88.1944 116.873 88.8957 116.873 90.421C116.873 91.628 116.64 93.3452 117.587 94.2885C118.525 95.2242 120.226 94.9912 121.419 94.9912C122.883 94.9912 123.588 95.2791 124.633 96.3298C125.523 97.2244 126.716 98.8347 128.124 98.8347C129.531 98.8347 130.724 97.2244 131.614 96.3298C132.659 95.2791 133.364 94.9912 134.828 94.9912C136.021 94.9912 137.722 95.2242 138.661 94.2885M140.786 80.2529C142.393 81.8687 143.197 82.6766 143.197 83.6805C143.197 84.6844 142.393 85.4924 140.786 87.1082C139.706 88.1943 139.374 88.8958 139.374 90.421C139.374 91.628 139.607 93.3452 138.661 94.2885M138.661 94.2885H138.675" stroke="#161C24" stroke-linecap="round" stroke-linejoin="round"/>
<path d="M122.094 81.116C122.094 81.116 125.486 80.6497 128.124 86.7114C128.124 86.7114 135.749 71.5572 143.197 68.5264" stroke="#161C24" stroke-linecap="round" stroke-linejoin="round"/>
</g>
</g>
<defs>
<linearGradient id="paint0_linear_24924_36530" x1="117.653" y1="214.401" x2="157.24" y2="-100.67" gradientUnits="userSpaceOnUse">
<stop stop-color="white"/>
<stop offset="1" stop-color="#EEEEEE"/>
</linearGradient>
<linearGradient id="paint1_linear_24924_36530" x1="79.6765" y1="96.2647" x2="111.08" y2="-44.3034" gradientUnits="userSpaceOnUse">
<stop stop-color="white"/>
<stop offset="1" stop-color="#EEEEEE"/>
</linearGradient>
<linearGradient id="paint2_linear_24924_36530" x1="62.4783" y1="88.5361" x2="-12.5246" y2="29.4383" gradientUnits="userSpaceOnUse">
<stop stop-color="white"/>
<stop offset="1" stop-color="#EEEEEE"/>
</linearGradient>
<linearGradient id="paint3_linear_24924_36530" x1="211.746" y1="98.0588" x2="251.524" y2="61.2429" gradientUnits="userSpaceOnUse">
<stop stop-color="white"/>
<stop offset="1" stop-color="#EEEEEE"/>
</linearGradient>
<clipPath id="clip0_24924_36530">
<rect width="257" height="172" fill="white"/>
</clipPath>
</defs>
</svg>
