<svg width="22" height="22" viewBox="0 0 22 22" fill="none" xmlns="http://www.w3.org/2000/svg">
<path d="M11 21C16.5228 21 21 16.5228 21 11C21 7.4 19.3025 5.05556 18.4537 4.33333C16.6226 2.2875 13.9617 1 11 1C5.47715 1 1 5.47715 1 11C1 16.5228 5.47715 21 11 21Z" fill="#DFE3E8"/>
<path d="M11.663 7C11.663 6.58579 11.3273 6.25 10.913 6.25C10.4988 6.25 10.163 6.58579 10.163 7L11.663 7ZM10.163 15C10.163 15.4142 10.4988 15.75 10.913 15.75C11.3273 15.75 11.663 15.4142 11.663 15H10.163ZM11.9583 9.12963C12.1876 9.47453 12.6532 9.56817 12.9981 9.33878C13.343 9.10939 13.4366 8.64384 13.2072 8.29894L11.9583 9.12963ZM9.78331 12.9455C9.49374 12.6493 9.01889 12.644 8.72272 12.9335C8.42654 13.2231 8.42118 13.698 8.71076 13.9941L9.78331 12.9455ZM10.913 10.1349C10.2789 10.1349 10.0019 10.0177 9.89231 9.93341C9.82698 9.88311 9.75 9.79382 9.75 9.50223H8.25C8.25 10.1016 8.43389 10.7036 8.97726 11.122C9.47641 11.5063 10.1559 11.6349 10.913 11.6349V10.1349ZM9.75 9.50223C9.75 9.14026 10.1458 8.63906 10.913 8.63906V7.13906C9.56721 7.13906 8.25 8.08234 8.25 9.50223H9.75ZM12.25 12.4981C12.25 12.8378 12.1295 13.0051 11.9643 13.1185C11.7586 13.2597 11.4071 13.3613 10.913 13.3613V14.8613C11.5716 14.8613 12.2636 14.7324 12.8132 14.3551C13.4033 13.95 13.75 13.3107 13.75 12.4981H12.25ZM10.913 11.6349C11.5544 11.6349 11.8772 11.7468 12.03 11.8608C12.1339 11.9382 12.25 12.0822 12.25 12.4981H13.75C13.75 11.7617 13.5182 11.0992 12.9265 10.6581C12.3837 10.2535 11.663 10.1349 10.913 10.1349V11.6349ZM11.663 7.88906L11.663 7L10.163 7L10.163 7.88906L11.663 7.88906ZM10.163 14.1113V15H11.663V14.1113H10.163ZM10.913 8.63906C11.4077 8.63906 11.7849 8.86893 11.9583 9.12963L13.2072 8.29894C12.7256 7.57477 11.8527 7.13906 10.913 7.13906V8.63906ZM10.913 13.3613C10.4081 13.3613 10.0058 13.1731 9.78331 12.9455L8.71076 13.9941C9.25016 14.5458 10.0569 14.8613 10.913 14.8613V13.3613Z" fill="#212B36"/>
<path d="M3.5795 7.60699L1 7.45417C2.849 2.70488 8.15764 -0.000149017 13.3334 1.34477C18.8461 2.77722 22.1205 8.26153 20.647 13.5943C19.4283 18.0051 15.3433 20.9307 10.8479 21" stroke="#212B36" stroke-width="1.5" stroke-linecap="round" stroke-linejoin="round"/>
<path d="M11 21C5.5 21 1 16 1 10" stroke="#212B36" stroke-width="1.5" stroke-linecap="round" stroke-linejoin="round" stroke-dasharray="0.5 3"/>
</svg>
