<svg width="21" height="20" viewBox="0 0 21 20" fill="none" xmlns="http://www.w3.org/2000/svg">
<path d="M18.8334 10.8333V9.16659H14.9167C14.2963 9.16659 13.9861 9.16659 13.7351 9.08501C13.2277 8.92015 12.8299 8.52234 12.665 8.01495C12.5834 7.76389 12.5834 7.45368 12.5834 6.83325C12.5834 5.90261 12.5834 5.43729 12.4611 5.06071C12.2138 4.29961 11.6171 3.70291 10.856 3.45561C10.4794 3.33325 10.0141 3.33325 9.08342 3.33325H2.16675L2.18971 12.4999C2.23526 13.4139 2.37122 13.984 2.77694 14.3897C3.18267 14.7955 3.75281 14.9314 4.66675 14.977L8.00008 14.9999H13.0001L16.3334 14.977C17.2474 14.9314 17.8175 14.7954 18.2232 14.3897C18.8334 13.7795 18.8334 12.7974 18.8334 10.8333Z" fill="#00AB55"/>
<path d="M4.66675 14.977C3.75281 14.9314 3.18267 14.7954 2.77694 14.3897C2.37122 13.984 2.23526 13.4139 2.18971 12.4999M8.00008 14.9999H13.0001M16.3334 14.977C17.2474 14.9314 17.8175 14.7954 18.2232 14.3897C18.8334 13.7795 18.8334 12.7974 18.8334 10.8333V9.16659H14.9167C14.2963 9.16659 13.9861 9.16659 13.7351 9.08501C13.2277 8.92015 12.8299 8.52234 12.665 8.01495C12.5834 7.76389 12.5834 7.45368 12.5834 6.83325C12.5834 5.90261 12.5834 5.43729 12.4611 5.06071C12.2138 4.29961 11.6171 3.70291 10.856 3.45561C10.4794 3.33325 10.0141 3.33325 9.08342 3.33325H2.16675" stroke="#101828" stroke-linecap="round" stroke-linejoin="round"/>
<circle cx="14.6667" cy="14.9999" r="1.66667" fill="white"/>
<circle cx="14.6667" cy="14.9999" r="1.66667" stroke="#101828"/>
<ellipse cx="6.33342" cy="14.9999" rx="1.66667" ry="1.66667" fill="white"/>
<ellipse cx="6.33342" cy="14.9999" rx="1.66667" ry="1.66667" stroke="#101828"/>
<path d="M2.16675 6.6665H7.16675" stroke="#101828" stroke-linecap="round" stroke-linejoin="round"/>
<path d="M2.16675 9.1665H5.50008" stroke="#101828" stroke-linecap="round" stroke-linejoin="round"/>
<path d="M12.5835 5H14.1012C15.314 5 15.9204 5 16.4138 5.29476C16.9073 5.58952 17.1948 6.12343 17.7698 7.19125L18.8335 9.16667" stroke="#101828" stroke-linecap="round" stroke-linejoin="round"/>
</svg>
