<svg width="20" height="20" viewBox="0 0 20 20" fill="none" xmlns="http://www.w3.org/2000/svg">
<circle cx="10.0001" cy="10.0001" r="8.33333" fill="#00AB55"/>
<path d="M16.288 13.7111C17.6517 14.4475 18.3335 14.8157 18.3335 15.4167C18.3335 16.0176 17.6517 16.3858 16.288 17.1222L15.3594 17.6236C14.3122 18.1892 13.7885 18.472 13.5368 18.2664C12.9202 17.7629 13.8808 16.4634 14.1171 16.0031C14.3566 15.5366 14.3523 15.2882 14.1171 14.8302C13.8808 14.3699 12.9202 13.0705 13.5368 12.567C13.7885 12.3614 14.3122 12.6442 15.3594 13.2097L16.288 13.7111Z" fill="white"/>
<path d="M10 6.66675V10.0001L11.25 11.2501" stroke="#101828" stroke-linecap="round" stroke-linejoin="round"/>
<path d="M16.288 13.7111C17.6517 14.4475 18.3335 14.8157 18.3335 15.4167C18.3335 16.0176 17.6517 16.3858 16.288 17.1222L15.3594 17.6236C14.3122 18.1892 13.7885 18.472 13.5368 18.2664C12.9202 17.7629 13.8808 16.4634 14.1171 16.0031C14.3566 15.5366 14.3523 15.2882 14.1171 14.8302C13.8808 14.3699 12.9202 13.0705 13.5368 12.567C13.7885 12.3614 14.3122 12.6442 15.3594 13.2097L16.288 13.7111Z" stroke="#101828"/>
<path d="M10.8552 18.2901C10.574 18.3187 10.2888 18.3334 10.0001 18.3334C5.39771 18.3334 1.66675 14.6025 1.66675 10.0001C1.66675 5.39771 5.39771 1.66675 10.0001 1.66675C14.6025 1.66675 18.3334 5.39771 18.3334 10.0001C18.3334 10.5709 18.276 11.1282 18.1667 11.6667" stroke="#101828" stroke-linecap="round"/>
</svg>
