<svg width="20" height="20" viewBox="0 0 20 20" fill="none" xmlns="http://www.w3.org/2000/svg">
<path d="M16.6667 8.84178C16.6667 12.8041 13.3084 16.0168 9.16675 16.0168C8.67976 16.0174 8.19418 15.9724 7.71581 15.8826C7.37149 15.8179 7.19933 15.7856 7.07914 15.804C6.95895 15.8223 6.78863 15.9129 6.44799 16.094C5.48435 16.6065 4.36071 16.7875 3.28008 16.5865C3.6908 16.0813 3.97131 15.4751 4.09508 14.8253C4.17008 14.4279 3.98425 14.0417 3.70591 13.7591C2.44175 12.4754 1.66675 10.7456 1.66675 8.84178C1.66675 4.87943 5.02508 1.66675 9.16675 1.66675C13.3084 1.66675 16.6667 4.87943 16.6667 8.84178Z" fill="#00AB55"/>
<path d="M9.16675 13.5515C9.16675 15.9729 11.2191 17.9362 13.7501 17.9362C14.0477 17.9366 14.3444 17.9091 14.6368 17.8542C14.8472 17.8147 14.9524 17.7949 15.0258 17.8062C15.0993 17.8174 15.2034 17.8727 15.4115 17.9834C16.0004 18.2966 16.6871 18.4072 17.3475 18.2844C17.0965 17.9756 16.9251 17.6052 16.8494 17.2081C16.8036 16.9652 16.9172 16.7292 17.0873 16.5565C17.8598 15.772 18.3334 14.7149 18.3334 13.5515C18.3334 11.1301 16.2811 9.16675 13.7501 9.16675C11.2191 9.16675 9.16675 11.1301 9.16675 13.5515Z" fill="white"/>
<path d="M16.6667 7.50008C16.0041 4.17887 12.9274 1.66675 9.23279 1.66675C5.05466 1.66675 1.66675 4.87943 1.66675 8.84179C1.66675 10.7456 2.44857 12.4754 3.72387 13.7591C4.00466 14.0417 4.19213 14.4279 4.11647 14.8253C3.9916 15.4751 3.70863 16.0813 3.29429 16.5865C4.38444 16.7875 5.51797 16.6065 6.49009 16.094C6.83374 15.9129 7.00556 15.8223 7.12681 15.804C7.21168 15.7911 7.32224 15.8031 7.50008 15.8336" stroke="#101828" stroke-linecap="round" stroke-linejoin="round"/>
<path d="M9.16675 13.5515C9.16675 15.9729 11.2191 17.9362 13.7501 17.9362C14.0477 17.9366 14.3444 17.9091 14.6368 17.8542C14.8472 17.8147 14.9524 17.7949 15.0258 17.8062C15.0993 17.8174 15.2034 17.8727 15.4115 17.9834C16.0004 18.2966 16.6871 18.4072 17.3475 18.2844C17.0965 17.9756 16.9251 17.6052 16.8494 17.2081C16.8036 16.9652 16.9172 16.7292 17.0873 16.5565C17.8598 15.772 18.3334 14.7149 18.3334 13.5515C18.3334 11.1301 16.2811 9.16675 13.7501 9.16675C11.2191 9.16675 9.16675 11.1301 9.16675 13.5515Z" stroke="#101828" stroke-linejoin="round"/>
</svg>
