<svg width="25" height="24" viewBox="0 0 25 24" fill="none" xmlns="http://www.w3.org/2000/svg">
<path d="M11.7738 21.5123L9.74347 20.3072C9.22818 20.0014 8.97054 19.8484 8.68459 19.8396C8.3756 19.83 8.11338 19.9767 7.55658 20.3072C6.93297 20.6774 5.69295 21.697 4.89085 21.2108C4.40002 20.9132 4.40002 20.1574 4.40002 18.6457V8C4.40002 5.17157 4.40002 3.75736 5.2787 2.87868C6.15738 2 7.5716 2 10.4 2H15.4C18.2285 2 19.6427 2 20.5213 2.87868C21.4 3.75736 21.4 5.17157 21.4 8V18.6457C21.4 20.1574 21.4 20.9132 20.9092 21.2108C20.1071 21.697 18.8671 20.6774 18.2435 20.3072C17.7282 20.0014 17.4705 19.8484 17.1846 19.8396C16.8756 19.83 16.6134 19.9767 16.0566 20.3072L14.0263 21.5123C13.4786 21.8374 13.2047 21.9999 12.9 21.9999C12.5953 21.9999 12.3214 21.8374 11.7738 21.5123Z" stroke="#212B36" stroke-width="1.5" stroke-linecap="round" stroke-linejoin="round"/>
<path d="M15.9 8L9.90002 14" stroke="#212B36" stroke-width="1.5" stroke-linecap="round" stroke-linejoin="round"/>
<path d="M15.9 14H15.8911M9.90899 8H9.90002" stroke="#212B36" stroke-width="2" stroke-linecap="round" stroke-linejoin="round"/>
</svg>
