<svg width="25" height="24" viewBox="0 0 25 24" fill="none" xmlns="http://www.w3.org/2000/svg">
<path d="M3.1001 11L3.1001 15.5C3.1001 18.3284 3.1001 19.7426 3.97878 20.6213C4.85746 21.5 6.27167 21.5 9.1001 21.5L15.1001 21.5C17.9285 21.5 19.3427 21.5 20.2214 20.6213C21.1001 19.7426 21.1001 18.3284 21.1001 15.5V11" stroke="#212B36" stroke-width="1.5"/>
<path d="M5.04885 12C6.71783 12 8.07081 10.6569 8.07081 9C8.53266 10.7252 10.1615 12 12.1001 12C14.0387 12 15.6675 10.7252 16.1294 9C16.1294 10.6569 17.4824 12 19.1514 12C20.4519 12 21.5605 11.1845 21.9866 10.0405C22.0783 9.79426 22.1242 9.67116 22.0874 9.22893C22.0505 8.78669 21.9145 8.55036 21.6424 8.0777L20.6788 6.40355C20.3379 5.81144 20.1587 5.14129 20.1587 4.45934C20.1587 3.37723 19.275 2.5 18.185 2.5L6.01521 2.5C4.92517 2.5 4.04153 3.37723 4.04153 4.45934C4.04153 5.14129 3.86226 5.81144 3.52143 6.40355L2.55777 8.0777C2.2857 8.55036 2.14966 8.78669 2.11284 9.22893C2.07601 9.67116 2.12187 9.79426 2.21357 10.0405C2.63971 11.1845 3.74834 12 5.04885 12Z" fill="white"/>
<path d="M8.07081 9L8.7953 8.80605C8.69797 8.44245 8.3462 8.20732 7.973 8.2564C7.59981 8.30549 7.32081 8.62359 7.32081 9L8.07081 9ZM2.21357 10.0405L2.9164 9.77865L2.9164 9.77865L2.21357 10.0405ZM21.9866 10.0405L21.2838 9.77865L21.2838 9.77866L21.9866 10.0405ZM16.1294 9H16.8794C16.8794 8.62359 16.6004 8.30549 16.2272 8.2564C15.854 8.20732 15.5022 8.44245 15.4049 8.80605L16.1294 9ZM2.55777 8.0777L3.20778 8.45185L3.20778 8.45185L2.55777 8.0777ZM3.52143 6.40355L2.87143 6.02939H2.87143L3.52143 6.40355ZM21.6424 8.0777L20.9924 8.45185V8.45185L21.6424 8.0777ZM20.6788 6.40355L21.3288 6.02939V6.02939L20.6788 6.40355ZM22.0874 9.22893L21.3399 9.29116V9.29117L22.0874 9.22893ZM2.11284 9.22893L1.36543 9.16669L2.11284 9.22893ZM7.32081 9C7.32081 10.2375 6.30879 11.25 5.04885 11.25L5.04885 12.75C7.12688 12.75 8.82081 11.0762 8.82081 9L7.32081 9ZM5.04885 11.25C4.06891 11.25 3.23578 10.6361 2.9164 9.77865L1.51075 10.3022C2.04364 11.7329 3.42777 12.75 5.04885 12.75L5.04885 11.25ZM21.2838 9.77866C20.9644 10.6361 20.1313 11.25 19.1514 11.25V12.75C20.7724 12.75 22.1566 11.7329 22.6894 10.3022L21.2838 9.77866ZM19.1514 11.25C17.8914 11.25 16.8794 10.2375 16.8794 9H15.3794C15.3794 11.0762 17.0733 12.75 19.1514 12.75V11.25ZM12.1001 11.25C10.4914 11.25 9.16688 10.1941 8.7953 8.80605L7.34632 9.19395C7.89843 11.2564 9.83165 12.75 12.1001 12.75V11.25ZM15.4049 8.80605C15.0333 10.1941 13.7088 11.25 12.1001 11.25V12.75C14.3685 12.75 16.3018 11.2564 16.8539 9.19395L15.4049 8.80605ZM3.20778 8.45185L4.17144 6.7777L2.87143 6.02939L1.90776 7.70355L3.20778 8.45185ZM22.2924 7.70355L21.3288 6.02939L20.0288 6.7777L20.9924 8.45185L22.2924 7.70355ZM6.01521 3.25L18.185 3.25V1.75L6.01521 1.75V3.25ZM20.9087 4.45934C20.9087 2.95786 19.6841 1.75 18.185 1.75V3.25C18.866 3.25 19.4087 3.79659 19.4087 4.45934H20.9087ZM21.3288 6.02939C21.0533 5.55089 20.9087 5.00972 20.9087 4.45934H19.4087C19.4087 5.27286 19.6225 6.072 20.0288 6.7777L21.3288 6.02939ZM4.79153 4.45934C4.79153 3.79659 5.33422 3.25 6.01521 3.25V1.75C4.51613 1.75 3.29153 2.95786 3.29153 4.45934L4.79153 4.45934ZM22.6894 10.3023C22.7323 10.1872 22.7944 10.0269 22.8261 9.82441C22.8577 9.62312 22.8554 9.41456 22.8348 9.16669L21.3399 9.29117C21.3561 9.48553 21.3493 9.55963 21.3442 9.592C21.3394 9.62315 21.3326 9.64756 21.2838 9.77865L22.6894 10.3023ZM20.9924 8.45185C21.2675 8.92967 21.3186 9.03434 21.3399 9.29116L22.8348 9.16669C22.7825 8.53904 22.5615 8.17106 22.2924 7.70355L20.9924 8.45185ZM4.17144 6.7777C4.57765 6.072 4.79153 5.27286 4.79153 4.45934L3.29153 4.45934C3.29153 5.00972 3.14686 5.55089 2.87143 6.02939L4.17144 6.7777ZM2.9164 9.77865C2.86756 9.64756 2.86084 9.62315 2.85595 9.592C2.85087 9.55963 2.84407 9.48552 2.86025 9.29116L1.36543 9.16669C1.34479 9.41457 1.34249 9.62312 1.37406 9.82441C1.40583 10.0269 1.46788 10.1872 1.51075 10.3022L2.9164 9.77865ZM1.90776 7.70355C1.63866 8.17106 1.41769 8.53904 1.36543 9.16669L2.86025 9.29116C2.88164 9.03434 2.93274 8.92967 3.20778 8.45185L1.90776 7.70355Z" fill="#212B36"/>
<path d="M7.1001 18H11.1001" stroke="#212B36" stroke-width="1.5" stroke-linecap="round"/>
</svg>
