<svg width="283" height="174" viewBox="0 0 283 174" fill="none" xmlns="http://www.w3.org/2000/svg">
<path d="M59.0665 112.048C59.9729 135.024 109.082 177.308 162.61 154.932C187.505 144.525 184.085 131.447 201.942 112.114C212.585 100.591 228.546 91.1355 231.766 75.5351C234.549 62.0696 230.766 48.231 222.948 39.7324C205.367 20.6193 172.454 9.48929 144.378 44.8342C116.302 80.1792 56.7351 52.7927 59.0665 112.048Z" fill="url(#paint0_linear_24924_36829)"/>
<path d="M49.8551 50.0942C54.1498 57.7501 63.5551 58.8019 78.6229 57.3473C89.9549 56.251 100.289 55.4027 111.622 49.2305C119.554 44.9136 125.833 39.0731 130.416 33.4004C135.382 27.2548 142.314 20.2413 138.916 13.2733C134.246 3.70154 107.241 -4.35993 81.0181 8.82332C52.2121 23.3092 45.6541 42.6117 49.8551 50.0942Z" fill="url(#paint1_linear_24924_36829)"/>
<path d="M14.9167 73.0607C26.0496 78.5769 40.8256 71.4839 40.8256 71.4839C40.8256 71.4839 37.5419 55.4503 26.403 49.9415C15.2701 44.4249 0.5 51.5102 0.5 51.5102C0.5 51.5102 3.78377 67.5442 14.9167 73.0607Z" fill="url(#paint2_linear_24924_36829)"/>
<path d="M264.364 90.2469C258.316 93.8682 249.638 90.5205 249.638 90.5205C249.638 90.5205 250.772 81.3032 256.825 77.6861C262.873 74.0651 271.548 77.4083 271.548 77.4083C271.548 77.4083 270.413 86.6256 264.364 90.2469Z" fill="url(#paint3_linear_24924_36829)"/>
<path d="M42.5222 151.889C44.4108 151.889 45.9417 150.36 45.9417 148.474C45.9417 146.587 44.4108 145.058 42.5222 145.058C40.6337 145.058 39.1028 146.587 39.1028 148.474C39.1028 150.36 40.6337 151.889 42.5222 151.889Z" fill="#D0D5DD"/>
<path d="M265.219 128.096C267.947 128.096 270.158 125.887 270.158 123.162C270.158 120.437 267.947 118.229 265.219 118.229C262.491 118.229 260.28 120.437 260.28 123.162C260.28 125.887 262.491 128.096 265.219 128.096Z" fill="#D0D5DD"/>
<path d="M25.11 118.46C27.1859 118.46 28.8688 116.779 28.8688 114.705C28.8688 112.631 27.1859 110.95 25.11 110.95C23.034 110.95 21.3511 112.631 21.3511 114.705C21.3511 116.779 23.034 118.46 25.11 118.46Z" fill="#D0D5DD"/>
<path d="M46.1551 19.3958C48.4633 19.3958 50.3344 17.5267 50.3344 15.2211C50.3344 12.9155 48.4633 11.0464 46.1551 11.0464C43.847 11.0464 41.9758 12.9155 41.9758 15.2211C41.9758 17.5267 43.847 19.3958 46.1551 19.3958Z" fill="#D0D5DD"/>
<path d="M274.994 41.5857C274.994 43.6561 276.674 45.3345 278.747 45.3345C280.82 45.3345 282.5 43.6561 282.5 41.5857C282.5 39.5153 280.82 37.8369 278.747 37.8369C276.674 37.8369 274.994 39.5153 274.994 41.5857Z" fill="#D0D5DD"/>
<path d="M168.733 10.4739C171.49 10.4739 173.726 8.24114 173.726 5.48693C173.726 2.73273 171.49 0.5 168.733 0.5C165.976 0.5 163.741 2.73273 163.741 5.48693C163.741 8.24114 165.976 10.4739 168.733 10.4739Z" fill="#D0D5DD"/>
<path d="M38.7905 96.9748C40.9116 96.9748 42.6311 95.6008 42.6311 93.9058C42.6311 92.2109 40.9116 90.8369 38.7905 90.8369C36.6694 90.8369 34.95 92.2109 34.95 93.9058C34.95 95.6008 36.6694 96.9748 38.7905 96.9748Z" fill="#D0D5DD"/>
<path d="M236.806 19.3364H236.751C236.427 23.9216 233.013 23.992 233.013 23.992C233.013 23.992 236.778 24.0656 236.778 29.3635C236.778 24.0656 240.542 23.992 240.542 23.992C240.542 23.992 237.13 23.9216 236.806 19.3364ZM242.525 139.356H242.472C242.161 143.927 238.884 143.997 238.884 143.997C238.884 143.997 242.498 144.071 242.498 149.353C242.498 144.071 246.112 143.997 246.112 143.997C246.112 143.997 242.836 143.927 242.525 139.356Z" fill="#DFE3E8"/>
<path d="M138.545 173.5C186.175 173.5 224.786 134.931 224.786 87.354C224.786 39.7769 186.175 1.20801 138.545 1.20801C90.9152 1.20801 52.3037 39.7769 52.3037 87.354C52.3037 134.931 90.9152 173.5 138.545 173.5Z" fill="#00AB55"/>
<mask id="mask0_24924_36829" style="mask-type:alpha" maskUnits="userSpaceOnUse" x="52" y="1" width="173" height="173">
<path d="M138.545 173.5C186.175 173.5 224.786 134.931 224.786 87.354C224.786 39.7769 186.175 1.20801 138.545 1.20801C90.9152 1.20801 52.3037 39.7769 52.3037 87.354C52.3037 134.931 90.9152 173.5 138.545 173.5Z" fill="#666AF6"/>
</mask>
<g mask="url(#mask0_24924_36829)">
<path d="M184.671 48.6411H92.8023C85.0561 48.6411 78.7766 54.9137 78.7766 62.6513V161.423C78.7766 169.161 85.0561 175.433 92.8023 175.433H184.671C192.417 175.433 198.696 169.161 198.696 161.423V62.6513C198.696 54.9137 192.417 48.6411 184.671 48.6411Z" fill="white"/>
<path d="M111.667 71.5063C113.987 70.1665 117.103 70.1665 123.333 70.1665H156.667C162.898 70.1665 166.013 70.1665 168.333 71.5063C169.854 72.3839 171.116 73.6463 171.994 75.1665C173.333 77.487 173.333 80.6024 173.333 86.8332C173.333 93.0639 173.333 96.1793 171.994 98.4998C171.116 100.02 169.854 101.282 168.333 102.16C166.013 103.5 162.898 103.5 156.667 103.5H156.667L123.333 103.5C117.103 103.5 113.987 103.5 111.667 102.16C110.147 101.282 108.884 100.02 108.006 98.4998C106.667 96.1793 106.667 93.0639 106.667 86.8332C106.667 80.6024 106.667 77.487 108.006 75.1665C108.884 73.6463 110.147 72.3839 111.667 71.5063Z" fill="white"/>
<path d="M173.333 116.833C173.333 105.787 164.379 96.833 153.333 96.833C142.288 96.833 133.333 105.787 133.333 116.833C133.333 127.879 142.288 136.833 153.333 136.833C164.379 136.833 173.333 127.879 173.333 116.833Z" fill="white"/>
<path d="M173.333 116.833C173.333 105.787 164.379 96.833 153.333 96.833C142.288 96.833 133.333 105.787 133.333 116.833C133.333 127.879 142.288 136.833 153.333 136.833C164.379 136.833 173.333 127.879 173.333 116.833Z" fill="#FFC107"/>
<path d="M173.334 116.833C173.334 105.787 164.379 96.833 153.333 96.833C142.288 96.833 133.333 105.787 133.333 116.833C133.333 127.879 142.288 136.833 153.333 136.833C164.379 136.833 173.334 127.879 173.334 116.833Z" stroke="#161C24" stroke-width="1.5"/>
<path d="M146.667 119.055C146.667 119.055 148.75 119.055 150.833 123.5C150.833 123.5 157.451 112.389 163.333 110.167" stroke="white" stroke-width="1.5" stroke-linecap="round" stroke-linejoin="round"/>
<path d="M111.667 102.16L112.042 101.511H112.042L111.667 102.16ZM108.006 98.4998L107.357 98.8748H107.357L108.006 98.4998ZM168.333 71.5062L167.958 72.1558L167.958 72.1558L168.333 71.5062ZM171.994 75.1665L172.643 74.7915V74.7915L171.994 75.1665ZM111.667 71.5062L112.042 72.1558L111.667 71.5062ZM108.006 75.1665L108.656 75.5415L108.006 75.1665ZM172.403 94.2354C172.362 94.6477 172.664 95.0147 173.076 95.0551C173.488 95.0956 173.855 94.7942 173.896 94.382L172.403 94.2354ZM126.452 104.25C126.866 104.25 127.202 103.914 127.202 103.5C127.202 103.086 126.866 102.75 126.452 102.75V104.25ZM123.333 70.9165H156.667V69.4165H123.333V70.9165ZM123.333 102.75C120.204 102.75 117.907 102.749 116.101 102.585C114.306 102.423 113.069 102.104 112.042 101.511L111.292 102.81C112.585 103.556 114.066 103.907 115.966 104.079C117.855 104.251 120.232 104.25 123.333 104.25V102.75ZM105.917 86.8332C105.917 89.9348 105.916 92.3111 106.087 94.2006C106.259 96.1003 106.61 97.5814 107.357 98.8748L108.656 98.1248C108.063 97.0978 107.744 95.8609 107.581 94.0652C107.417 92.2591 107.417 89.9624 107.417 86.8332H105.917ZM112.042 101.511C110.636 100.699 109.468 99.531 108.656 98.1248L107.357 98.8748C108.3 100.509 109.658 101.866 111.292 102.81L112.042 101.511ZM156.667 70.9165C159.796 70.9165 162.093 70.9172 163.899 71.0809C165.694 71.2437 166.931 71.5628 167.958 72.1558L168.708 70.8567C167.415 70.11 165.934 69.7592 164.034 69.587C162.145 69.4158 159.768 69.4165 156.667 69.4165V70.9165ZM174.083 86.8332C174.083 83.7316 174.084 81.3553 173.913 79.4658C173.741 77.566 173.39 76.0849 172.643 74.7915L171.344 75.5415C171.937 76.5686 172.256 77.8054 172.419 79.6012C172.583 81.4072 172.583 83.704 172.583 86.8332H174.083ZM167.958 72.1558C169.365 72.9676 170.532 74.1353 171.344 75.5415L172.643 74.7915C171.7 73.1573 170.343 71.8002 168.708 70.8567L167.958 72.1558ZM123.333 69.4165C120.232 69.4165 117.855 69.4158 115.966 69.587C114.066 69.7592 112.585 70.11 111.292 70.8567L112.042 72.1558C113.069 71.5628 114.306 71.2437 116.101 71.0809C117.907 70.9172 120.204 70.9165 123.333 70.9165V69.4165ZM107.417 86.8332C107.417 83.704 107.417 81.4072 107.581 79.6012C107.744 77.8054 108.063 76.5686 108.656 75.5415L107.357 74.7915C106.61 76.0849 106.259 77.566 106.087 79.4658C105.916 81.3553 105.917 83.7316 105.917 86.8332H107.417ZM111.292 70.8567C109.658 71.8002 108.3 73.1573 107.357 74.7915L108.656 75.5415C109.468 74.1353 110.636 72.9676 112.042 72.1558L111.292 70.8567ZM172.583 86.8332C172.583 90.0634 172.583 92.4057 172.403 94.2354L173.896 94.382C174.084 92.4619 174.083 90.033 174.083 86.8332H172.583ZM126.452 102.75H123.333V104.25H126.452V102.75Z" fill="#161C24"/>
<path d="M156.667 86.833H156.697" stroke="#161C24" stroke-width="2" stroke-linecap="round" stroke-linejoin="round"/>
<path d="M140 86.833H140.03" stroke="#161C24" stroke-width="2" stroke-linecap="round" stroke-linejoin="round"/>
<path d="M123.333 86.833H123.363" stroke="#161C24" stroke-width="2" stroke-linecap="round" stroke-linejoin="round"/>
</g>
<path d="M183.884 127.03C185.609 127.03 187.165 125.991 187.825 124.397C188.485 122.803 188.12 120.968 186.9 119.749C185.679 118.529 183.845 118.165 182.251 118.825C180.657 119.486 179.618 121.042 179.619 122.767C179.619 123.898 180.068 124.983 180.868 125.783C181.668 126.582 182.753 127.031 183.884 127.03Z" fill="#1890FF"/>
<path d="M116.466 66.0303C118.191 66.0303 119.747 64.991 120.407 63.397C121.067 61.8031 120.702 59.9685 119.482 58.7488C118.261 57.5291 116.427 57.1646 114.833 57.8252C113.239 58.4859 112.201 60.0416 112.201 61.7668C112.201 62.898 112.65 63.9829 113.45 64.7826C114.25 65.5823 115.335 66.0312 116.466 66.0303Z" fill="#FFC107"/>
<path d="M90.4205 148.281C94.7948 148.281 98.3409 144.735 98.3409 140.36C98.3409 135.986 94.7948 132.44 90.4205 132.44C86.0461 132.44 82.5 135.986 82.5 140.36C82.4979 142.462 83.3317 144.478 84.8175 145.963C86.3033 147.449 88.3192 148.283 90.4205 148.281Z" fill="#FF4842"/>
<defs>
<linearGradient id="paint0_linear_24924_36829" x1="125.419" y1="244.052" x2="173.554" y2="-140.967" gradientUnits="userSpaceOnUse">
<stop stop-color="white"/>
<stop offset="1" stop-color="#EEEEEE"/>
</linearGradient>
<linearGradient id="paint1_linear_24924_36829" x1="78.7856" y1="99.711" x2="116.982" y2="-72.1189" gradientUnits="userSpaceOnUse">
<stop stop-color="white"/>
<stop offset="1" stop-color="#EEEEEE"/>
</linearGradient>
<linearGradient id="paint2_linear_24924_36829" x1="57.668" y1="90.2677" x2="-34.078" y2="17.6158" gradientUnits="userSpaceOnUse">
<stop stop-color="white"/>
<stop offset="1" stop-color="#EEEEEE"/>
</linearGradient>
<linearGradient id="paint3_linear_24924_36829" x1="240.958" y1="101.903" x2="289.578" y2="56.6791" gradientUnits="userSpaceOnUse">
<stop stop-color="white"/>
<stop offset="1" stop-color="#EEEEEE"/>
</linearGradient>
</defs>
</svg>
