<svg width="316" height="211" viewBox="0 0 316 211" fill="none" xmlns="http://www.w3.org/2000/svg">
<g clip-path="url(#clip0_24924_35597)">
<path d="M78.2228 130.479C79.1305 153.547 128.305 196.002 181.905 173.536C206.833 163.087 203.408 149.956 221.289 130.545C231.947 118.976 247.929 109.482 251.153 93.8191C253.94 80.2993 250.151 66.4049 242.324 57.8721C224.719 38.682 191.762 27.5071 163.649 62.9944C135.534 98.4818 75.8883 70.985 78.2228 130.479Z" fill="url(#paint0_linear_24924_35597)"/>
<path d="M68.9987 68.2757C73.2992 75.9624 82.717 77.0185 97.805 75.558C109.152 74.4573 119.5 73.6056 130.848 67.4085C138.791 63.0742 145.078 57.2102 149.667 51.5146C154.64 45.3442 161.581 38.3025 158.179 31.3064C153.502 21.696 126.461 13.6021 100.203 26.8385C71.3589 41.3827 64.7921 60.7631 68.9987 68.2757Z" fill="url(#paint1_linear_24924_35597)"/>
<path d="M34.0131 91.3347C45.1609 96.8731 59.9567 89.7515 59.9567 89.7515C59.9567 89.7515 56.6685 73.6533 45.5148 68.1223C34.367 62.5835 19.5771 69.6974 19.5771 69.6974C19.5771 69.6974 22.8653 85.796 34.0131 91.3347Z" fill="url(#paint2_linear_24924_35597)"/>
<path d="M283.795 108.59C277.738 112.226 269.048 108.865 269.048 108.865C269.048 108.865 270.185 99.6102 276.245 95.9785C282.302 92.343 290.988 95.6996 290.988 95.6996C290.988 95.6996 289.851 104.954 283.795 108.59Z" fill="url(#paint3_linear_24924_35597)"/>
<path d="M61.656 170.481C63.547 170.481 65.08 168.946 65.08 167.052C65.08 165.157 63.547 163.622 61.656 163.622C59.7649 163.622 58.2319 165.157 58.2319 167.052C58.2319 168.946 59.7649 170.481 61.656 170.481Z" fill="#DFE3E8"/>
<path d="M284.65 146.592C287.381 146.592 289.596 144.374 289.596 141.638C289.596 138.902 287.381 136.685 284.65 136.685C281.918 136.685 279.704 138.902 279.704 141.638C279.704 144.374 281.918 146.592 284.65 146.592Z" fill="#DFE3E8"/>
<path d="M44.2205 136.917C46.2992 136.917 47.9844 135.229 47.9844 133.147C47.9844 131.065 46.2992 129.377 44.2205 129.377C42.1417 129.377 40.4565 131.065 40.4565 133.147C40.4565 135.229 42.1417 136.917 44.2205 136.917Z" fill="#DFE3E8"/>
<path d="M65.2933 37.4533C67.6045 37.4533 69.4782 35.5767 69.4782 33.2618C69.4782 30.9469 67.6045 29.0703 65.2933 29.0703C62.982 29.0703 61.1084 30.9469 61.1084 33.2618C61.1084 35.5767 62.982 37.4533 65.2933 37.4533Z" fill="#DFE3E8"/>
<path d="M294.44 59.7326C294.44 61.8114 296.122 63.4965 298.198 63.4965C300.273 63.4965 301.956 61.8114 301.956 59.7326C301.956 57.6539 300.273 55.9688 298.198 55.9688C296.122 55.9688 294.44 57.6539 294.44 59.7326Z" fill="#DFE3E8"/>
<path d="M188.037 28.4955C190.798 28.4955 193.036 26.2538 193.036 23.4885C193.036 20.7232 190.798 18.4814 188.037 18.4814C185.276 18.4814 183.038 20.7232 183.038 23.4885C183.038 26.2538 185.276 28.4955 188.037 28.4955Z" fill="#DFE3E8"/>
<path d="M57.9204 115.345C60.0444 115.345 61.7661 113.966 61.7661 112.264C61.7661 110.562 60.0444 109.183 57.9204 109.183C55.7965 109.183 54.0747 110.562 54.0747 112.264C54.0747 113.966 55.7965 115.345 57.9204 115.345Z" fill="#DFE3E8"/>
<path d="M256.2 37.3936H256.145C255.82 41.9972 252.402 42.0679 252.402 42.0679C252.402 42.0679 256.172 42.1418 256.172 47.4611C256.172 42.1418 259.941 42.0679 259.941 42.0679C259.941 42.0679 256.524 41.9972 256.2 37.3936ZM261.926 157.897H261.874C261.562 162.486 258.28 162.557 258.28 162.557C258.28 162.557 261.899 162.63 261.899 167.934C261.899 162.63 265.518 162.557 265.518 162.557C265.518 162.557 262.238 162.486 261.926 157.897Z" fill="#DFE3E8"/>
<path d="M157.808 192.179C205.502 192.179 244.165 153.454 244.165 105.686C244.165 57.9167 205.502 19.1924 157.808 19.1924C110.115 19.1924 71.4517 57.9167 71.4517 105.686C71.4517 153.454 110.115 192.179 157.808 192.179Z" fill="#00AB55"/>
<mask id="mask0_24924_35597" style="mask-type:alpha" maskUnits="userSpaceOnUse" x="71" y="19" width="174" height="174">
<path d="M157.808 192.179C205.502 192.179 244.165 153.454 244.165 105.686C244.165 57.9167 205.502 19.1924 157.808 19.1924C110.115 19.1924 71.4517 57.9167 71.4517 105.686C71.4517 153.454 110.115 192.179 157.808 192.179Z" fill="#666AF6"/>
</mask>
<g mask="url(#mask0_24924_35597)">
<path d="M203.996 66.8164H112.004C104.248 66.8164 97.96 73.1143 97.96 80.8831V180.053C97.96 187.822 104.248 194.12 112.004 194.12H203.996C211.752 194.12 218.04 187.822 218.04 180.053V80.8831C218.04 73.1143 211.752 66.8164 203.996 66.8164Z" fill="white"/>
<path fill-rule="evenodd" clip-rule="evenodd" d="M126.614 133.813C126.614 132.273 127.859 131.024 129.394 131.024H186.569C188.104 131.024 189.349 132.273 189.349 133.813C189.349 135.353 188.104 136.602 186.569 136.602H129.394C127.859 136.602 126.614 135.353 126.614 133.813ZM126.614 149.349C126.614 147.808 127.859 146.56 129.394 146.56H186.569C188.104 146.56 189.349 147.808 189.349 149.349C189.349 150.889 188.104 152.137 186.569 152.137H129.394C127.859 152.137 126.614 150.889 126.614 149.349ZM135.909 164.932C135.909 163.392 137.154 162.143 138.689 162.143H177.311C178.847 162.143 180.091 163.392 180.091 164.932C180.091 166.472 178.847 167.72 177.311 167.72H138.689C137.154 167.72 135.909 166.472 135.909 164.932Z" fill="#DFE3E8"/>
<path d="M153.345 87.0368C152.159 88.2262 150.984 88.7785 149.293 88.7785C147.817 88.7785 145.717 88.4913 144.563 89.6581C143.419 90.8157 143.704 92.9137 143.704 94.3849C143.704 96.0808 143.153 97.2595 141.967 98.449C139.991 100.431 139.003 101.422 139.003 102.654C139.003 103.885 139.991 104.876 141.967 106.859C143.296 108.191 143.704 109.051 143.704 110.923C143.704 112.403 143.417 114.51 144.581 115.667C145.735 116.815 147.826 116.529 149.293 116.529C151.093 116.529 151.96 116.882 153.245 118.171C154.339 119.269 155.806 121.244 157.537 121.244C159.267 121.244 160.734 119.269 161.828 118.171C163.113 116.882 163.98 116.529 165.78 116.529C167.247 116.529 169.339 116.815 170.493 115.667C171.656 114.51 171.37 112.403 171.37 110.923C171.37 109.052 171.778 108.191 173.106 106.859C175.082 104.876 176.07 103.885 176.07 102.654C176.07 101.422 175.082 100.431 173.106 98.449C171.778 97.1164 171.37 96.2561 171.37 94.3849C171.37 92.9043 171.656 90.7977 170.493 89.6406C169.339 88.4926 167.247 88.7785 165.78 88.7785C164.089 88.7785 162.914 88.226 161.729 87.0368C159.753 85.0546 158.764 84.0635 157.537 84.0635C156.309 84.0635 155.321 85.0546 153.345 87.0368Z" fill="#00AB55"/>
<path d="M161.729 87.0368C159.753 85.0546 158.764 84.0635 157.537 84.0635C156.309 84.0635 155.321 85.0546 153.345 87.0368C152.159 88.2262 150.984 88.7785 149.293 88.7785C147.817 88.7785 145.717 88.4913 144.563 89.6581C143.419 90.8157 143.704 92.9137 143.704 94.3849C143.704 96.0808 143.153 97.2595 141.967 98.449C139.991 100.431 139.003 101.422 139.003 102.654C139.003 103.885 139.991 104.876 141.967 106.859C143.296 108.191 143.704 109.051 143.704 110.923C143.704 112.403 143.417 114.51 144.581 115.667C145.735 116.815 147.826 116.529 149.293 116.529C151.093 116.529 151.96 116.882 153.245 118.171C154.339 119.269 155.806 121.244 157.537 121.244C159.267 121.244 160.734 119.269 161.828 118.171C163.113 116.882 163.98 116.529 165.78 116.529C167.247 116.529 169.339 116.815 170.493 115.667M173.106 98.449C175.082 100.431 176.07 101.422 176.07 102.654C176.07 103.885 175.082 104.876 173.106 106.859C171.778 108.191 171.37 109.051 171.37 110.923C171.37 112.403 171.656 114.51 170.493 115.667M170.493 115.667H170.51" stroke="#101828" stroke-linecap="round" stroke-linejoin="round"/>
<path d="M150.123 99.5077C150.123 99.5077 154.293 98.9357 157.537 106.372C157.537 106.372 166.912 87.7815 176.07 84.0635" stroke="#101828" stroke-linecap="round" stroke-linejoin="round"/>
</g>
</g>
<defs>
<linearGradient id="paint0_linear_24924_35597" x1="144.664" y1="263.015" x2="193.119" y2="-123.524" gradientUnits="userSpaceOnUse">
<stop stop-color="white"/>
<stop offset="1" stop-color="#EEEEEE"/>
</linearGradient>
<linearGradient id="paint1_linear_24924_35597" x1="97.9679" y1="118.092" x2="136.412" y2="-54.3862" gradientUnits="userSpaceOnUse">
<stop stop-color="white"/>
<stop offset="1" stop-color="#EEEEEE"/>
</linearGradient>
<linearGradient id="paint2_linear_24924_35597" x1="76.8216" y1="108.611" x2="-15.2371" y2="35.9071" gradientUnits="userSpaceOnUse">
<stop stop-color="white"/>
<stop offset="1" stop-color="#EEEEEE"/>
</linearGradient>
<linearGradient id="paint3_linear_24924_35597" x1="260.357" y1="120.293" x2="309.163" y2="75.0177" gradientUnits="userSpaceOnUse">
<stop stop-color="white"/>
<stop offset="1" stop-color="#EEEEEE"/>
</linearGradient>
<clipPath id="clip0_24924_35597">
<rect width="316" height="211" fill="white"/>
</clipPath>
</defs>
</svg>
