<svg width="283" height="174" viewBox="0 0 283 174" fill="none" xmlns="http://www.w3.org/2000/svg">
<path d="M59.0665 112.386C59.9729 135.361 109.082 177.646 162.61 155.27C187.505 144.863 184.085 131.785 201.942 112.452C212.585 100.929 228.546 91.4734 231.766 75.873C234.549 62.4075 230.766 48.5689 222.948 40.0703C205.367 20.9572 172.454 9.82718 144.378 45.1721C116.302 80.5171 56.7351 53.1306 59.0665 112.386Z" fill="url(#paint0_linear_24924_37787)"/>
<path d="M49.8551 50.4321C54.1498 58.088 63.5551 59.1398 78.6229 57.6852C89.9549 56.5889 100.289 55.7406 111.622 49.5684C119.554 45.2515 125.833 39.411 130.416 33.7383C135.382 27.5927 142.314 20.5792 138.916 13.6112C134.246 4.03943 107.241 -4.02204 81.0181 9.16121C52.2121 23.6471 45.6541 42.9496 49.8551 50.4321Z" fill="url(#paint1_linear_24924_37787)"/>
<path d="M14.9167 73.3986C26.0496 78.9148 40.8256 71.8218 40.8256 71.8218C40.8256 71.8218 37.5419 55.7882 26.403 50.2793C15.2701 44.7628 0.5 51.8481 0.5 51.8481C0.5 51.8481 3.78377 67.8821 14.9167 73.3986Z" fill="url(#paint2_linear_24924_37787)"/>
<path d="M264.364 90.5848C258.316 94.2061 249.638 90.8584 249.638 90.8584C249.638 90.8584 250.772 81.6411 256.825 78.024C262.873 74.403 271.548 77.7462 271.548 77.7462C271.548 77.7462 270.413 86.9635 264.364 90.5848Z" fill="url(#paint3_linear_24924_37787)"/>
<path d="M42.522 152.227C44.4105 152.227 45.9415 150.698 45.9415 148.812C45.9415 146.925 44.4105 145.396 42.522 145.396C40.6335 145.396 39.1025 146.925 39.1025 148.812C39.1025 150.698 40.6335 152.227 42.522 152.227Z" fill="#D0D5DD"/>
<path d="M265.219 128.434C267.947 128.434 270.158 126.225 270.158 123.5C270.158 120.775 267.947 118.566 265.219 118.566C262.491 118.566 260.28 120.775 260.28 123.5C260.28 126.225 262.491 128.434 265.219 128.434Z" fill="#D0D5DD"/>
<path d="M25.11 118.798C27.1859 118.798 28.8688 117.117 28.8688 115.043C28.8688 112.969 27.1859 111.288 25.11 111.288C23.034 111.288 21.3511 112.969 21.3511 115.043C21.3511 117.117 23.034 118.798 25.11 118.798Z" fill="#D0D5DD"/>
<path d="M46.1549 19.7337C48.4631 19.7337 50.3342 17.8646 50.3342 15.559C50.3342 13.2533 48.4631 11.3843 46.1549 11.3843C43.8467 11.3843 41.9756 13.2533 41.9756 15.559C41.9756 17.8646 43.8467 19.7337 46.1549 19.7337Z" fill="#D0D5DD"/>
<path d="M274.994 41.9236C274.994 43.994 276.674 45.6724 278.747 45.6724C280.82 45.6724 282.5 43.994 282.5 41.9236C282.5 39.8532 280.82 38.1748 278.747 38.1748C276.674 38.1748 274.994 39.8532 274.994 41.9236Z" fill="#D0D5DD"/>
<path d="M168.733 10.8118C171.49 10.8118 173.726 8.57903 173.726 5.82482C173.726 3.07062 171.49 0.837891 168.733 0.837891C165.976 0.837891 163.741 3.07062 163.741 5.82482C163.741 8.57903 165.976 10.8118 168.733 10.8118Z" fill="#D0D5DD"/>
<path d="M38.7908 97.3127C40.9119 97.3127 42.6314 95.9387 42.6314 94.2437C42.6314 92.5488 40.9119 91.1748 38.7908 91.1748C36.6697 91.1748 34.9502 92.5488 34.9502 94.2437C34.9502 95.9387 36.6697 97.3127 38.7908 97.3127Z" fill="#D0D5DD"/>
<path d="M236.805 19.6743H236.751C236.427 24.2595 233.013 24.3299 233.013 24.3299C233.013 24.3299 236.777 24.4035 236.777 29.7014C236.777 24.4035 240.541 24.3299 240.541 24.3299C240.541 24.3299 237.129 24.2595 236.805 19.6743ZM242.524 139.694H242.472C242.161 144.265 238.883 144.335 238.883 144.335C238.883 144.335 242.497 144.409 242.497 149.691C242.497 144.409 246.111 144.335 246.111 144.335C246.111 144.335 242.835 144.265 242.524 139.694Z" fill="#DFE3E8"/>
<path d="M138.545 173.838C186.175 173.838 224.786 135.269 224.786 87.6919C224.786 40.1148 186.175 1.5459 138.545 1.5459C90.9152 1.5459 52.3037 40.1148 52.3037 87.6919C52.3037 135.269 90.9152 173.838 138.545 173.838Z" fill="#00AB55"/>
<mask id="mask0_24924_37787" style="mask-type:alpha" maskUnits="userSpaceOnUse" x="52" y="1" width="173" height="173">
<path d="M138.545 173.838C186.175 173.838 224.786 135.269 224.786 87.6919C224.786 40.1148 186.175 1.5459 138.545 1.5459C90.9152 1.5459 52.3037 40.1148 52.3037 87.6919C52.3037 135.269 90.9152 173.838 138.545 173.838Z" fill="#666AF6"/>
</mask>
<g mask="url(#mask0_24924_37787)">
<path d="M184.67 48.979H92.8021C85.0559 48.979 78.7764 55.2516 78.7764 62.9892V161.761C78.7764 169.499 85.0559 175.771 92.8021 175.771H184.67C192.417 175.771 198.696 169.499 198.696 161.761V62.9892C198.696 55.2516 192.417 48.979 184.67 48.979Z" fill="white"/>
<path d="M126 126.665C127.526 132.392 132.909 136.624 139.315 136.624C145.721 136.624 151.104 132.392 152.631 126.665H126Z" fill="white"/>
<path d="M107.79 112.62C107.082 117.248 110.247 120.46 114.122 122.061C128.978 128.199 149.652 128.199 164.508 122.061C168.383 120.46 171.548 117.248 170.84 112.62C170.405 109.775 168.253 107.407 166.66 105.094C164.572 102.028 164.365 98.6832 164.364 95.1248C164.364 81.3731 153.149 70.2251 139.315 70.2251C125.48 70.2251 114.265 81.3731 114.265 95.1248C114.265 98.6832 114.058 102.028 111.97 105.094C110.376 107.407 108.225 109.775 107.79 112.62Z" fill="#FFC107"/>
<path d="M144.308 70.7198C142.695 70.3954 141.025 70.2251 139.315 70.2251C125.48 70.2251 114.265 81.3731 114.265 95.1248C114.265 98.6832 114.058 102.028 111.97 105.094C110.376 107.407 108.225 109.775 107.79 112.62C107.082 117.248 110.247 120.46 114.122 122.061C128.978 128.199 149.652 128.199 164.508 122.061C168.383 120.46 171.548 117.248 170.84 112.62C170.507 110.446 169.172 108.55 167.85 106.745" stroke="#161C24" stroke-width="1.5" stroke-linecap="round" stroke-linejoin="round"/>
<path d="M152.684 76.8652H164.909C167.481 76.8652 168.767 76.8652 169.109 77.6624C169.452 78.4596 168.577 79.4159 166.827 81.3285L155.45 92.3217C153.7 94.2343 152.341 95.1906 152.684 95.9878C153.026 96.785 154.796 96.785 157.367 96.785H169.275" stroke="#161C24" stroke-width="1.5" stroke-linecap="round" stroke-linejoin="round"/>
<path d="M126 126.665C127.526 132.392 132.909 136.624 139.315 136.624C145.721 136.624 151.104 132.392 152.631 126.665" stroke="#161C24" stroke-width="1.5" stroke-linecap="round" stroke-linejoin="round"/>
</g>
<path d="M183.884 127.368C185.609 127.368 187.165 126.329 187.825 124.735C188.485 123.141 188.12 121.306 186.9 120.087C185.679 118.867 183.845 118.502 182.251 119.163C180.657 119.824 179.618 121.379 179.619 123.105C179.619 124.236 180.068 125.321 180.868 126.12C181.668 126.92 182.753 127.369 183.884 127.368Z" fill="#1890FF"/>
<path d="M116.466 66.3682C118.191 66.3682 119.747 65.3289 120.407 63.7349C121.067 62.141 120.702 60.3064 119.482 59.0867C118.261 57.867 116.427 57.5025 114.833 58.1631C113.239 58.8238 112.201 60.3795 112.201 62.1047C112.201 63.2359 112.65 64.3208 113.45 65.1205C114.25 65.9202 115.335 66.3691 116.466 66.3682Z" fill="#FFC107"/>
<path d="M90.4205 148.619C94.7948 148.619 98.3409 145.073 98.3409 140.698C98.3409 136.324 94.7948 132.778 90.4205 132.778C86.0461 132.778 82.5 136.324 82.5 140.698C82.4979 142.8 83.3317 144.815 84.8175 146.301C86.3033 147.787 88.3192 148.621 90.4205 148.619Z" fill="#FF4842"/>
<defs>
<linearGradient id="paint0_linear_24924_37787" x1="125.419" y1="244.39" x2="173.554" y2="-140.629" gradientUnits="userSpaceOnUse">
<stop stop-color="white"/>
<stop offset="1" stop-color="#EEEEEE"/>
</linearGradient>
<linearGradient id="paint1_linear_24924_37787" x1="78.7856" y1="100.049" x2="116.982" y2="-71.781" gradientUnits="userSpaceOnUse">
<stop stop-color="white"/>
<stop offset="1" stop-color="#EEEEEE"/>
</linearGradient>
<linearGradient id="paint2_linear_24924_37787" x1="57.668" y1="90.6056" x2="-34.078" y2="17.9537" gradientUnits="userSpaceOnUse">
<stop stop-color="white"/>
<stop offset="1" stop-color="#EEEEEE"/>
</linearGradient>
<linearGradient id="paint3_linear_24924_37787" x1="240.958" y1="102.241" x2="289.578" y2="57.017" gradientUnits="userSpaceOnUse">
<stop stop-color="white"/>
<stop offset="1" stop-color="#EEEEEE"/>
</linearGradient>
</defs>
</svg>
