<svg width="25" height="24" viewBox="0 0 25 24" fill="none" xmlns="http://www.w3.org/2000/svg">
<path d="M2.96446 9.34375C2.71591 9.34375 2.48911 9.14229 2.50054 8.87895C2.56745 7.33687 2.75493 6.33298 3.2802 5.53884C3.5824 5.08196 3.95777 4.68459 4.38935 4.36468C5.55587 3.5 7.20151 3.5 10.4928 3.5L14.5075 3.5C17.7988 3.5 19.4444 3.5 20.6109 4.36468C21.0425 4.68459 21.4179 5.08196 21.7201 5.53884C22.2453 6.33289 22.4328 7.33665 22.4997 8.87843C22.5112 9.14208 22.2841 9.34375 22.0352 9.34375C20.6494 9.34375 19.526 10.533 19.526 12C19.526 13.467 20.6494 14.6562 22.0352 14.6562C22.2841 14.6562 22.5112 14.8579 22.4997 15.1216C22.4328 16.6634 22.2453 17.6671 21.7201 18.4612C21.4179 18.918 21.0425 19.3154 20.6109 19.6353C19.4444 20.5 17.7988 20.5 14.5075 20.5H10.4928C7.20151 20.5 5.55587 20.5 4.38935 19.6353C3.95777 19.3154 3.5824 18.918 3.2802 18.4612C2.75493 17.667 2.56745 16.6631 2.50054 15.1211C2.48911 14.8577 2.71591 14.6562 2.96446 14.6562C4.35024 14.6562 5.47364 13.467 5.47364 12C5.47364 10.533 4.35024 9.34375 2.96446 9.34375Z" stroke="white" stroke-width="1.5" stroke-linejoin="round"/>
<path d="M10.0001 14.5L15.0001 9.5" stroke="white" stroke-width="1.5" stroke-linecap="round" stroke-linejoin="round"/>
<path d="M10.0001 9.5H10.0113M14.9889 14.5H15.0001" stroke="white" stroke-width="2" stroke-linecap="round" stroke-linejoin="round"/>
</svg>
